<?xml version="1.0" encoding="UTF-8"?>
<svg id="Vrstva_2" data-name="Vrstva 2" xmlns="http://www.w3.org/2000/svg" viewBox="0 0 2492.08 1838.42">
  <defs>
    <style>
      .cls-1 {
        fill: #feefdc;
      }

      .cls-2 {
        fill: #3f9896;
      }

      .cls-3 {
        fill: #136d6a;
      }

      .cls-4 {
        fill: #ebae65;
      }

      .cls-5 {
        fill: #fff;
      }

      .cls-6 {
        fill: #e23e3d;
      }

      .cls-7 {
        fill: #fbfdfc;
      }

      .cls-8 {
        fill: #fec786;
      }

      .cls-9 {
        fill: #223749;
      }

      .cls-10 {
        fill: #2d7c78;
      }

      .cls-11 {
        fill: #1d1d1b;
      }

      .cls-12 {
        fill: #4c222e;
      }

      .cls-13 {
        fill: #fe9f73;
      }

      .cls-14 {
        fill: #f07162;
      }

      .cls-15 {
        fill: #228fa8;
      }

      .cls-16 {
        fill: #f75553;
      }

      .cls-17 {
        fill: #258d8c;
      }

      .cls-18 {
        fill: #33192c;
      }

      .cls-19 {
        fill: #4cb7d8;
      }

      .cls-20 {
        fill: #8bd8b3;
      }
    </style>
  </defs>
  <g id="Layer_1" data-name="Layer 1">
    <g>
      <path class="cls-9" d="M2403.24,1100.63c-39.3,928.56-1845.25,859.23-2204.64,453.74C-170.17,1138.3-13.43,140.88,569.59,104.96c98.16-6.05,366.07,90.04,526.51,1.36,160.44-88.67,462.07-185.99,749.95-1.36,278.34,178.51,190.35,409.59,293.34,518.24,93.25,98.34,227.61,92.52,258.22,341.25,5.02,40.76,7.5,91.84,5.64,136.18Z"/>
      <g>
        <path class="cls-18" d="M1631.09,1019.65c25.56,0,44.72-7.01,57-20.88,18.16-20.5,14.2-48.14,14.03-49.31l-8.74,1.33,4.37-.66-4.37.66c.04.25,3.47,24.84-11.96,42.19-11.14,12.54-29.44,18.51-54.38,17.77l-.26,8.84c1.46.04,2.9.07,4.32.07Z"/>
        <path class="cls-18" d="M1611.67,909.57c-25.56,0-44.72-7.01-57-20.88-18.16-20.5-14.2-48.14-14.03-49.31l8.74,1.33-4.37-.66,4.37.66c-.04.25-3.47,24.84,11.96,42.19,11.14,12.54,29.44,18.51,54.38,17.77l.26,8.84c-1.46.04-2.9.06-4.32.06Z"/>
        <path class="cls-18" d="M1615.28,726.48c-25.56,0-44.72-7.01-57-20.88-18.16-20.5-14.2-48.14-14.03-49.31l8.74,1.33-4.37-.66,4.37.66c-.04.25-3.47,24.84,11.96,42.19,11.14,12.54,29.44,18.51,54.38,17.77l.26,8.84c-1.46.04-2.9.07-4.32.07Z"/>
        <path class="cls-18" d="M1611.67,1144.21c-25.56,0-44.72-7.01-57-20.88-18.16-20.5-14.2-48.14-14.03-49.31l8.74,1.33-4.37-.66,4.37.66c-.04.25-3.47,24.84,11.96,42.19,11.14,12.54,29.44,18.51,54.38,17.77l.26,8.84c-1.46.04-2.9.07-4.32.07Z"/>
        <path class="cls-18" d="M1637.41,814.11c25.56,0,44.72-7.01,57-20.88,18.16-20.5,14.2-48.14,14.03-49.31l-8.74,1.33,4.37-.66-4.37.66c.04.25,3.47,24.84-11.96,42.19-11.14,12.54-29.44,18.51-54.38,17.77l-.26,8.84c1.46.04,2.9.06,4.32.06Z"/>
        <polygon class="cls-18" points="1612.97 549.37 1612.97 549.04 1612.98 549.04 1623.24 549.04 1623.25 549.04 1633.51 549.04 1633.52 549.04 1633.51 549.37 1638.65 1727.32 1628.38 1727.32 1618.11 1727.32 1607.84 1727.32 1612.97 549.37"/>
        <path class="cls-17" d="M1737.69,568.17c-.96-7.79-5.12-14.48-15.96-15.92,0,0-4.5-46.25-41.76-32.12,0,0-24.41-33.4-53.32,6.42,0,0-18.63-52.03-69.38-32.76-50.75,19.27-31.48,70.02-31.48,70.02,0,0-11.73-2.01-16.07,8.49-3.76,9.09,1.96,19.38,11.51,21.74,30.07,7.42,111.33,23.79,191.45,7.72,15.71-3.15,26.95-17.69,24.99-33.59Z"/>
        <path class="cls-17" d="M1562.78,863.58c19.08-3.89,30.02-24.84,20.94-42.06-2.99-5.67-7.88-10.07-15.83-10.29-23.13-.64-32.12,18.31-32.12,18.31,0,0-8.99-51.07-46.25-45.29-37.26,5.78-32.76,46.25-32.76,46.25,0,0-16.06-8.99-24.41,6.42-3.28,6.06-2.4,11.47-.12,15.81,3.52,6.69,10.42,10.9,17.95,11.58,20.67,1.86,78.85,6.15,112.61-.74Z"/>
        <path class="cls-17" d="M1693.61,754.97c-15.2-3.1-23.92-19.79-16.68-33.51,2.39-4.52,6.28-8.02,12.62-8.2,18.43-.51,25.6,14.59,25.6,14.59,0,0,7.17-40.7,36.86-36.09,29.69,4.61,26.11,36.86,26.11,36.86,0,0,12.8-7.17,19.45,5.12,2.61,4.83,1.91,9.14.09,12.6-2.8,5.33-8.31,8.69-14.3,9.23-16.47,1.48-62.83,4.9-89.73-.59Z"/>
        <path class="cls-17" d="M1544.93,1099.51c12.79-2.61,20.13-16.66,14.04-28.21-2.01-3.81-5.29-6.75-10.62-6.9-15.51-.43-21.54,12.28-21.54,12.28,0,0-6.03-34.25-31.02-30.38-24.99,3.88-21.97,31.02-21.97,31.02,0,0-10.77-6.03-16.37,4.31-2.2,4.06-1.61,7.69-.08,10.6,2.36,4.49,6.99,7.31,12.04,7.77,13.86,1.25,52.88,4.13,75.53-.49Z"/>
        <path class="cls-17" d="M1565.47,668.53c12.79-2.61,20.13-16.66,14.04-28.21-2.01-3.81-5.29-6.75-10.62-6.9-15.51-.43-21.54,12.28-21.54,12.28,0,0-6.03-34.25-31.02-30.38-24.99,3.88-21.97,31.02-21.97,31.02,0,0-10.77-6.03-16.37,4.31-2.2,4.06-1.61,7.69-.08,10.6,2.36,4.49,6.99,7.31,12.04,7.77,13.86,1.25,52.88,4.13,75.53-.49Z"/>
        <path class="cls-20" d="M1793.06,960.59c18.13-3.7,28.53-23.61,19.9-39.97-2.84-5.39-7.49-9.57-15.05-9.78-21.98-.61-30.53,17.4-30.53,17.4,0,0-8.55-48.54-43.96-43.04-35.41,5.49-31.14,43.96-31.14,43.96,0,0-15.26-8.55-23.2,6.11-3.12,5.76-1.52,11.28.65,15.4,3.34,6.36,9.15,9.99,16.3,10.63,19.65,1.77,74.94,5.85,107.02-.7Z"/>
      </g>
      <path class="cls-2" d="M1490.82,1709.85c-87.06-7.63-88.12,91.1-88.12,91.1,0,0-39.57-37.57-68.11,10.06,0,0-49.32-28.51-74.2,24.15-.35.74-.57,1.49-.7,2.23,91.73-2.42,183.57-10.04,273.09-23.37,9.5-1.41,18.97-2.91,28.42-4.45-.46-23.36-7.08-94.17-70.39-99.72Z"/>
      <path class="cls-2" d="M601.77,1603.38c.18-3.2,1.43-6.42,4.02-9.18,5.65-6.02,15.29-10.92,31.5-12.06,0,0-5.58-100.5,70.33-107.15,87.06-7.63,88.12,91.1,88.12,91.1,0,0,39.57-37.57,68.11,10.06,0,0,49.32-28.51,74.2,24.15.48,1.02.73,2.06.8,3.09h-337.07Z"/>
      <path class="cls-10" d="M2165.6,1567.18c-22.42,18.33-46.13,35.62-70.99,51.92-21.68,14.22-44.24,27.68-67.58,40.4-142.13,77.48-313.47,127.63-494.24,154.52-2.24-18.61-3.12-46.23,3.92-77.41,12.85-56.95,63.94-6.38,63.94-6.38,13.26-38.51,58.3-18.35,59.02-18.03-.32-.76-17.25-29.22,8.61-52.7,25.49-23.15,48.77-11.94,49.9-10.63-1.25-1.62-37.87-49.69-25.34-88.19,12.61-38.75,53.77,2.18,54.65,3.06-.79-1.04-40.13-53.37-20.04-78.79,20.29-25.67,55.52,24.23,55.52,24.23,0,0-17.84-78.39,32.86-87.24,42.67-7.44,71.13,71.73,79.08,97.02-1.85-9.24-1.29-23.31,20.44-20.67,31.91,3.88,44.54,66.42,44.54,66.42,21.48-54.21,54.77-14.7,54.77-14.7,9.81-63.91,55.28-69.15,55.28-69.15,56.56-17.25,83.47,40.69,95.67,86.33Z"/>
      <path class="cls-10" d="M914.46,1766.6l-299.5.24c-27.24-7.25-53.7-15-79.29-23.23-40.56-13.05-78.91-27.3-114.63-42.68-16.63-7.15-32.69-14.55-48.13-22.19,9.02-25.78,27.63-50.69,65.92-50.08,0,0,37.76-6.29,60.41,42.79,0,0,17.62-39.42,47.39-.85-.52-1.13-43.05-93.6-18.45-104.02,24.57-10.41,47.49,41.61,47.81,42.35-.26-1.23-24.08-112.44,18.47-117.02,42.79-4.62,46.56,62.5,46.56,62.5,0,0,16.78-48.24,39.02-32.3,22.01,15.78,2.5,66.91,2.1,67.94.56-1,24.13-43.27,43.19-15.08,19.1,28.22.4,75.76,0,76.75.35-.76,14.17-30.44,40.26-17.6,26.42,13,21.39,54.95,21.39,54.95,0,0,31.88-27.27,51.6.83,0,0,29.36-52.43,52.86-9.65,23.49,42.79,23,86.34,23,86.34Z"/>
      <g>
        <path class="cls-18" d="M1038.86,1341.21c21.72,0,38-5.96,48.43-17.74,15.43-17.42,12.07-40.91,11.92-41.9l-7.43,1.13,3.72-.56-3.72.56c.03.21,2.95,21.11-10.16,35.85-9.47,10.65-25.02,15.73-46.21,15.1l-.22,7.51c1.24.04,2.47.06,3.67.06Z"/>
        <path class="cls-18" d="M1022.35,1247.67c-21.72,0-38-5.96-48.43-17.74-15.43-17.42-12.07-40.91-11.92-41.9l7.43,1.13-3.72-.56,3.72.56c-.03.21-2.95,21.11,10.16,35.85,9.47,10.65,25.02,15.73,46.21,15.1l.22,7.51c-1.24.04-2.47.06-3.67.06Z"/>
        <path class="cls-18" d="M1025.42,1092.11c-21.72,0-38-5.96-48.43-17.74-15.43-17.42-12.07-40.91-11.92-41.9l7.43,1.13-3.72-.56,3.72.56c-.03.21-2.95,21.11,10.16,35.85,9.47,10.65,25.02,15.73,46.21,15.1l.22,7.51c-1.24.04-2.47.06-3.67.06Z"/>
        <path class="cls-18" d="M1022.35,1447.05c-21.72,0-38-5.96-48.43-17.74-15.43-17.42-12.07-40.91-11.92-41.9l7.43,1.13-3.72-.56,3.72.56c-.03.21-2.95,21.11,10.16,35.85,9.47,10.65,25.02,15.73,46.21,15.1l.22,7.51c-1.24.04-2.47.06-3.67.06Z"/>
        <path class="cls-18" d="M1044.22,1166.57c21.72,0,38-5.96,48.43-17.74,15.43-17.42,12.07-40.91,11.92-41.9l-7.43,1.13,3.72-.56-3.72.56c.03.21,2.95,21.11-10.16,35.85-9.47,10.65-25.02,15.73-46.21,15.1l-.22,7.51c1.24.04,2.47.06,3.67.06Z"/>
        <path class="cls-18" d="M1045.27,1833.73l-4.36-891.23v-.28s0,0,0,0h-17.45v.28s-4.35,889.52-4.35,889.52c8.7.62,17.42,1.18,26.16,1.71Z"/>
        <path class="cls-17" d="M1129.43,957.59c-.82-6.62-4.35-12.3-13.56-13.53,0,0-3.82-39.3-35.48-27.29,0,0-20.74-28.38-45.3,5.46,0,0-15.83-44.21-58.95-27.84-43.12,16.38-26.75,59.5-26.75,59.5,0,0-9.96-1.71-13.65,7.21-3.19,7.72,1.67,16.47,9.78,18.47,25.55,6.31,94.6,20.22,162.67,6.56,13.35-2.68,22.9-15.03,21.23-28.54Z"/>
        <path class="cls-17" d="M980.81,1208.6c16.21-3.31,25.51-21.1,17.79-35.73-2.54-4.82-6.7-8.56-13.45-8.74-19.65-.55-27.29,15.56-27.29,15.56,0,0-7.64-43.39-39.3-38.48-31.66,4.91-27.84,39.3-27.84,39.3,0,0-13.65-7.64-20.74,5.46-2.79,5.15-2.04,9.75-.1,13.43,2.99,5.68,8.86,9.26,15.25,9.84,17.56,1.58,67,5.23,95.68-.63Z"/>
        <path class="cls-17" d="M1091.98,1116.31c-12.92-2.64-20.33-16.82-14.18-28.48,2.03-3.84,5.34-6.82,10.72-6.97,15.66-.43,21.75,12.4,21.75,12.4,0,0,6.09-34.58,31.32-30.67,25.23,3.91,22.18,31.32,22.18,31.32,0,0,10.87-6.09,16.53,4.35,2.22,4.1,1.62,7.77.08,10.7-2.38,4.53-7.06,7.38-12.15,7.84-14,1.26-53.39,4.17-76.25-.5Z"/>
        <path class="cls-17" d="M965.65,1409.07c10.87-2.22,17.11-14.15,11.93-23.97-1.71-3.23-4.49-5.74-9.02-5.86-13.18-.37-18.3,10.43-18.3,10.43,0,0-5.13-29.1-26.36-25.81-21.23,3.29-18.67,26.36-18.67,26.36,0,0-9.15-5.13-13.91,3.66-1.87,3.45-1.37,6.54-.07,9.01,2,3.81,5.94,6.21,10.23,6.6,11.78,1.06,44.94,3.51,64.17-.42Z"/>
        <path class="cls-17" d="M983.1,1042.87c10.87-2.22,17.11-14.15,11.93-23.97-1.71-3.23-4.49-5.74-9.02-5.86-13.18-.37-18.3,10.43-18.3,10.43,0,0-5.13-29.1-26.36-25.81-21.23,3.29-18.67,26.36-18.67,26.36,0,0-9.15-5.13-13.91,3.66-1.87,3.45-1.37,6.54-.07,9.01,2,3.81,5.94,6.21,10.23,6.6,11.78,1.06,44.94,3.51,64.17-.42Z"/>
        <path class="cls-17" d="M1176.47,1291.03c15.4-3.14,24.24-20.06,16.91-33.96-2.42-4.58-6.37-8.13-12.79-8.31-18.68-.52-25.94,14.78-25.94,14.78,0,0-7.26-41.24-37.35-36.57-30.09,4.67-26.46,37.35-26.46,37.35,0,0-12.97-7.26-19.71,5.19-2.65,4.89-1.29,9.58.55,13.09,2.84,5.4,7.77,8.48,13.85,9.03,16.69,1.5,63.68,4.97,90.94-.6Z"/>
      </g>
      <path class="cls-1" d="M1339.1,239.05c.18-3.22,1.44-6.46,4.04-9.23,5.68-6.05,15.37-10.98,31.67-12.13,0,0-5.61-101.06,70.72-107.75,87.55-7.68,88.61,91.6,88.61,91.6,0,0,39.79-37.78,68.49,10.12,0,0,49.6-28.67,74.62,24.28.48,1.02.74,2.07.8,3.11h-338.94Z"/>
      <path class="cls-8" d="M569.41,489.5c0-71.19,45.09-131.85,108.28-154.98-17.68-6.47-36.78-10-56.71-10-91.12,0-164.99,73.87-164.99,164.99s73.87,164.99,164.99,164.99c19.93,0,39.03-3.53,56.71-10-63.18-23.13-108.28-83.79-108.28-154.98Z"/>
      <path class="cls-1" d="M790.95,518.6c-.16-2.8-1.25-5.61-3.51-8.02-4.94-5.26-13.36-9.55-27.52-10.54,0,0,4.88-87.81-61.45-93.63-76.08-6.67-77,79.6-77,79.6,0,0-34.58-32.83-59.52,8.79,0,0-43.1-24.91-64.84,21.1-.42.89-.64,1.8-.69,2.7h294.53Z"/>
      <path class="cls-1" d="M244.57,688.43c30.83-1.77,103.1-4.85,165.92.45,25.99,2.19,48.43-18.57,47.85-44.65-.24-10.67-4.07-23.09-13.97-37.16-38.15-54.17-104.45-2.44-103.81,25.06,0,0-13.4-41.41-54.12-34.16-40.71,7.25-26.32,67.47-26.32,67.47,0,0-13.14-2.78-22.25,3.44-8.96,6.11-4.13,20.16,6.7,19.54Z"/>
      <path class="cls-1" d="M1329.03,488.89c-30.83-1.77-103.1-4.85-165.92.45-25.99,2.19-48.43-18.57-47.85-44.65.24-10.67,4.07-23.09,13.97-37.16,38.15-54.17,104.45-2.44,103.81,25.06,0,0,13.4-41.41,54.12-34.16,40.71,7.25,26.32,67.47,26.32,67.47,0,0,13.14-2.78,22.25,3.44,8.96,6.11,4.13,20.16-6.7,19.54Z"/>
      <polygon class="cls-1" points="1574 348.64 1582.36 357.01 1594.01 354.87 1588.63 365.41 1594.27 375.82 1582.58 373.97 1574.42 382.55 1572.57 370.85 1561.89 365.75 1572.44 360.37 1574 348.64"/>
      <polygon class="cls-1" points="80.46 923.67 88.83 932.05 100.47 929.9 95.09 940.45 100.73 950.86 89.04 949 80.88 957.58 79.03 945.89 68.35 940.78 78.9 935.41 80.46 923.67"/>
      <polygon class="cls-1" points="1939.83 324.52 1942.02 332.71 1950.01 335.55 1942.89 340.16 1942.66 348.64 1936.07 343.3 1927.94 345.7 1930.98 337.78 1926.19 330.79 1934.66 331.24 1939.83 324.52"/>
      <polygon class="cls-1" points="564.89 860.14 566.31 870.04 575.28 874.49 566.3 878.9 564.84 888.8 557.87 881.63 548 883.3 552.67 874.45 548.03 865.59 557.89 867.29 564.89 860.14"/>
      <polygon class="cls-1" points="1254.31 696.03 1255.74 705.94 1264.7 710.38 1255.72 714.79 1254.27 724.7 1247.29 717.52 1237.43 719.19 1242.1 710.34 1237.46 701.48 1247.32 703.19 1254.31 696.03"/>
      <polygon class="cls-1" points="988.61 258.74 993.42 276.7 1010.93 282.92 995.33 293.04 994.83 311.62 980.39 299.91 962.56 305.17 969.23 287.82 958.72 272.49 977.28 273.47 988.61 258.74"/>
      <polygon class="cls-1" points="195.54 410.21 200.34 428.17 217.85 434.39 202.26 444.51 201.75 463.09 187.31 451.38 169.49 456.64 176.16 439.29 165.65 423.96 184.21 424.95 195.54 410.21"/>
      <rect class="cls-11" x="883.11" y="1635.75" width="2.31" height="28.56" transform="translate(-985.19 1551.57) rotate(-58.8)"/>
      <g>
        <path class="cls-5" d="M304.65,1252.67c-12.49-.72-41.77-1.96-67.22.18-10.53.89-19.62-7.52-19.38-18.09.1-4.32,1.65-9.35,5.66-15.05,15.45-21.95,42.32-.99,42.06,10.15,0,0,5.43-16.78,21.92-13.84,16.49,2.94,10.66,27.33,10.66,27.33,0,0,5.32-1.12,9.01,1.39,3.63,2.48,1.67,8.17-2.71,7.92Z"/>
        <path class="cls-3" d="M663.32,1259.43c13.7-9.74-97.03-35.75-97.03-53.84,0-24.35,103.48-34.88,81.28-41.49,5.76-11.52-29.64-19.93-29.64-33.69,0-47.32.3-90.25-47.02-90.25-7.97,0-15.67,1.11-22.99,3.15-9.54-15-26.29-24.96-45.38-24.96-2.23,0-4.43.15-6.59.42-12.92-30.95-43.46-52.7-79.09-52.7-33.18,0-61.94,18.88-76.17,46.47-13.25-8.4-28.94-13.28-45.79-13.28-47.32,0-85.68,38.36-85.68,85.68,0,7.15.89,14.09,2.54,20.73-5.9-1.28-12.02-1.98-18.3-1.98-47.32,0-28.12,34.08-28.12,81.4,0,15.68-53.33,34.64-45.98,47.28-7.25,9.16,82.43,2.4,82.43,14.99,0,18.36-84.8,52.89-70.75,62.58-8.84,13.48-14.01,29.6-14.01,46.93,0,47.32,38.36,85.68,85.68,85.68,12.84,0,25.01-2.84,35.94-7.9,5.36,18.86,18.49,33.59,38.84,36.64,22.78,3.42,41.39-4.18,50.5-27.72,7.45,5.46,16.63,8.69,26.57,8.69,11.91,0,22.74-4.64,30.79-12.2,13.52,8.92-9.08,2.37,8.33,2.37,1.04,0,8.31,10.29,9.34,10.25,9.99,36.24,81.33,53.49,124.03,44.82,46.37-9.42,71.66-31.91,81.72-79.01.04-.2-.01-.4-.02-.61,3.3.39,6.65.61,10.05.61,47.32,0,79.46-42.7,79.46-90.02,0-28.33-13.76-53.44-34.95-69.04Z"/>
        <path class="cls-18" d="M485.04,1435.4c-7.83,1.44-15.37,3.69-22.41,6.99-7.01,3.38-13.66,7.33-19.83,11.94-6.15,4.63-11.93,9.69-17.31,15.13-2.68,2.72-5.28,5.51-7.74,8.4-.38.43-.72.88-1.09,1.31l4.39,221.75c-17.36-7.46-34.1-15.21-50.17-23.2l4.46-232.64c-5.18-5.81-10.95-11.35-16.96-16.69-7.63-6.77-15.81-13.06-24.13-19.21-8.33-6.14-16.96-11.93-25.7-17.57-8.77-5.61-17.66-11.06-26.77-16.17,9.73,3.8,19.33,7.98,28.85,12.36,9.51,4.42,18.97,9.01,28.24,14.03,2.31,1.26,4.62,2.53,6.92,3.82-.04-.41-.08-.82-.11-1.23-.41-5.2-.21-10.34.37-15.36.39-2.51.7-5,1.3-7.44.48-2.45,1.18-4.85,1.87-7.22.65-2.39,1.62-4.68,2.41-7,.91-2.28,1.94-4.51,2.89-6.75-.48,2.4-1.01,4.77-1.43,7.15-.29,2.41-.76,4.77-.89,7.18-.19,2.4-.37,4.77-.32,7.16-.08,2.37.12,4.73.24,7.07.44,4.67,1.24,9.26,2.53,13.62.32,1.09.65,2.17,1.06,3.22.36,1.06.79,2.09,1.23,3.1.43,1.01.91,2,1.41,2.93.25.46.49.94.76,1.36,0,.02.02.04.04.06,2.38,1.47,4.76,2.98,7.11,4.54,3.37,2.25,6.72,4.56,10.02,6.99l2.49-52.39,14.28-2.93v-.86l2.12.43,2.13-.43v.86l14.28,2.93,2.65,55.69c1.65-5.81,3.43-11.58,5.37-17.3,4.04-11.9,8.68-23.62,14.41-34.8,2.85-5.59,5.97-11.05,9.48-16.24,3.51-5.19,7.36-10.15,11.7-14.62-3.96,4.81-7.36,10.02-10.4,15.42-3.05,5.38-5.67,11-8.02,16.72-4.73,11.42-8.34,23.26-11.34,35.24-3,11.97-5.33,24.11-7.2,36.3-.54,3.56-1.03,7.15-1.5,10.74.14-.09.26-.19.4-.29,5.94-4.14,12.14-7.87,18.54-11.2,5.27-7.5,9.19-16.3,12.2-25.39,1.58-4.83,2.91-9.77,4.01-14.77.55-2.51,1.03-5.03,1.46-7.56.21-1.27.39-2.54.56-3.82.12-1.26.38-2.6.27-3.8.29,1.2.22,2.56.27,3.83.02,1.3,0,2.59-.02,3.89-.06,2.58-.19,5.17-.39,7.76-.39,5.18-1.03,10.36-1.95,15.52-1.17,6.41-2.73,12.82-5,19.09,4.63-1.84,9.35-3.44,14.1-4.73,7.86-2.07,15.95-2.91,23.87-2.91Z"/>
        <path class="cls-17" d="M663.32,1209.03c13.7-9.74,22.64-25.73,22.64-43.82,0-24.35-16.19-44.9-38.39-51.51,5.76-11.52,9.02-24.51,9.02-38.26,0-47.32-38.36-85.68-85.68-85.68-7.97,0-15.67,1.11-22.99,3.15-9.54-15-26.29-24.96-45.38-24.96-2.23,0-4.43.15-6.59.42-12.92-30.95-43.46-52.7-79.09-52.7-33.18,0-61.94,18.88-76.17,46.47-13.25-8.4-28.94-13.28-45.79-13.28-47.32,0-85.68,38.36-85.68,85.68,0,7.15.89,14.09,2.54,20.73-5.9-1.28-12.02-1.98-18.3-1.98-47.32,0-85.68,38.36-85.68,85.68,0,15.68,4.23,30.36,11.58,43-7.25,9.16-11.58,20.72-11.58,33.31,0,18.36,9.22,34.57,23.27,44.26-8.84,13.48-14.01,29.6-14.01,46.93,0,47.32,38.36,85.68,85.68,85.68,12.84,0,25.01-2.84,35.94-7.9,5.36,18.86,22.7,32.67,43.27,32.67,23.46,0,43.99-16.2,46.07-39.12,7.45,5.46,15.37,6.92,25.31,6.92,11.91,0,22.74-4.64,30.79-12.2,13.52,8.92,29.7,14.12,47.1,14.12,1.04,0,2.07-.04,3.1-.08,9.99,36.24,43.17,62.86,82.58,62.86,47.32,0,74.62-40.78,85.68-85.68.05-.2-.01-.4-.02-.61,3.3.39,6.65.61,10.05.61,47.32,0,85.68-38.36,85.68-85.68,0-28.33-13.76-53.44-34.95-69.04Z"/>
        <circle class="cls-17" cx="297.31" cy="1197.79" r="45.68" transform="translate(-936.75 1211.95) rotate(-76.72)"/>
        <circle class="cls-17" cx="329.22" cy="1148.91" r="26.93" transform="translate(-857.59 1289.84) rotate(-80.78)"/>
        <circle class="cls-17" cx="577.35" cy="1050.17" r="26.93" transform="translate(-551.74 1451.85) rotate(-80.78)"/>
        <circle class="cls-17" cx="608.1" cy="1079.38" r="30.9" transform="translate(-554.75 1506.73) rotate(-80.78)"/>
        <circle class="cls-17" cx="459.5" cy="1318.63" r="39.77"/>
        <ellipse class="cls-17" cx="442.55" cy="1264.38" rx="23.84" ry="24.31"/>
        <circle class="cls-17" cx="434.2" cy="987.87" r="36.26" transform="translate(-633.98 1140.88) rotate(-74.42)"/>
        <circle class="cls-17" cx="386.14" cy="970.25" r="23.84" transform="translate(-42.98 18.23) rotate(-2.56)"/>
        <circle class="cls-17" cx="197.03" cy="1348.81" r="36.26" transform="translate(-896.05 534.38) rotate(-45)"/>
        <circle class="cls-17" cx="159.96" cy="1313.5" r="23.84" transform="translate(-1159.56 1214.79) rotate(-78.78)"/>
        <circle class="cls-17" cx="566.84" cy="1195.33" r="45.68" transform="translate(-352.1 243.66) rotate(-18.63)"/>
        <circle class="cls-17" cx="514.61" cy="1167.25" r="26.93" transform="translate(-542.04 452.56) rotate(-32.14)"/>
        <circle class="cls-17" cx="296.95" cy="1030.01" r="45.68" transform="translate(-746.64 785) rotate(-60.71)"/>
        <circle class="cls-17" cx="355.4" cy="1025.18" r="26.93" transform="translate(-695.71 1294.38) rotate(-85.25)"/>
        <circle class="cls-17" cx="293.13" cy="1347.09" r="45.68" transform="translate(-1067.03 1571.91) rotate(-87.11)"/>
        <circle class="cls-17" cx="250.75" cy="1307.21" r="26.93" transform="translate(-1071.27 1461.96) rotate(-85.82)"/>
        <path class="cls-17" d="M233.18,1169.28c-.57-14.86-13.08-26.45-27.94-25.88-14.86.57-26.45,13.08-25.88,27.94.03.89.11,1.76.23,2.63-2.38-.29-4.82-.39-7.29-.3-25.21.97-44.87,22.19-43.9,47.4.97,25.21,22.19,44.87,47.4,43.9,25.21-.97,44.87-22.19,43.9-47.4-.3-7.78-2.53-15.03-6.21-21.31,11.76-3.26,20.18-14.25,19.69-26.98Z"/>
        <circle class="cls-17" cx="391.6" cy="1112.97" r="45.68"/>
        <circle class="cls-17" cx="447.31" cy="1130.46" r="26.93" transform="translate(-767.29 1077.9) rotate(-65.93)"/>
        <path d="M127.97,1221.08c-.97-25.41,18.9-46.87,44.31-47.84,2.26-.09,4.55,0,6.81.24-.08-.71-.14-1.43-.17-2.12-.28-7.3,2.3-14.28,7.27-19.64,4.97-5.36,11.72-8.47,19.02-8.75l.03.85c-7.07.27-13.62,3.28-18.43,8.48-4.81,5.19-7.31,11.95-7.04,19.03.03.85.11,1.72.23,2.59l.07.55-.55-.07c-2.39-.29-4.82-.39-7.22-.3-24.94.96-44.44,22.02-43.49,46.96l-.85.03Z"/>
        <path d="M251.01,1199.85c-.97-25.41,18.9-46.87,44.31-47.84,2.27-.09,4.56,0,6.81.24-.08-.72-.14-1.43-.17-2.12-.28-7.3,2.3-14.28,7.27-19.64,4.97-5.36,11.72-8.47,19.03-8.75l.03.85c-7.07.27-13.62,3.28-18.43,8.48-4.81,5.19-7.31,11.95-7.04,19.03.03.85.11,1.72.23,2.59l.07.55-.55-.07c-2.39-.29-4.82-.39-7.22-.3-24.94.96-44.44,22.02-43.49,46.96l-.85.03Z"/>
        <path d="M472.91,1122.11c-2.21-6.73-6.9-12.19-13.22-15.39-6.32-3.2-13.5-3.74-20.23-1.53-.8.26-1.62.58-2.42.93l-.51.22-.09-.55c-.38-2.38-.95-4.74-1.7-7.03-7.78-23.71-33.4-36.67-57.11-28.89l-.27-.81c24.16-7.93,50.26,5.28,58.19,29.44.71,2.15,1.26,4.38,1.64,6.62.66-.28,1.33-.53,2-.74,6.94-2.28,14.36-1.72,20.88,1.58,6.52,3.3,11.37,8.94,13.64,15.88l-.81.27Z"/>
        <path d="M607.14,1175.74c-5.26-10.89-14.44-19.07-25.85-23.05-11.41-3.98-23.69-3.28-34.58,1.98-2.16,1.04-4.26,2.27-6.24,3.65l-.45.32-.19-.52c-.3-.82-.64-1.63-1.01-2.39-6.36-13.16-22.23-18.7-35.4-12.34l-.37-.77c13.58-6.56,29.97-.85,36.54,12.74.3.63.59,1.28.85,1.95,1.88-1.28,3.87-2.42,5.91-3.41,11.09-5.36,23.6-6.07,35.23-2.02,11.63,4.05,20.99,12.39,26.34,23.49l-.77.37Z"/>
        <path d="M338.27,1337.93c-5-24.45-28.95-40.28-53.4-35.28-2.35.48-4.69,1.16-6.94,2l-.52.19-.06-.55c-.09-.88-.22-1.74-.39-2.57-1.42-6.94-5.45-12.91-11.36-16.81-5.91-3.9-12.98-5.27-19.92-3.85l-.17-.84c7.16-1.46,14.46-.05,20.56,3.98,6.1,4.03,10.26,10.19,11.72,17.35.14.68.25,1.39.34,2.1,2.14-.78,4.34-1.4,6.56-1.85,24.91-5.09,49.32,11.03,54.41,35.94l-.84.17Z"/>
        <path d="M199.46,1385.75c-11.42,0-21.4-3.71-28.49-10.67-7.63-7.49-11.33-18.25-10.41-30.27.13-1.75.63-3.53,1.12-5.26.16-.57.32-1.12.45-1.66-.73,0-1.43-.02-2.12-.08-15.04-1.14-26.35-14.31-25.21-29.35l.85.06c-1.11,14.57,9.85,27.33,24.42,28.44.85.06,1.72.09,2.59.07h.55s-.13.53-.13.53c-.17.72-.38,1.45-.6,2.22-.47,1.68-.96,3.42-1.09,5.09-.89,11.77,2.71,22.28,10.16,29.6,7.96,7.82,19.68,11.44,32.99,10.18l.08.85c-1.75.17-3.48.25-5.18.25Z"/>
        <path class="cls-17" d="M451.94,1269.68s8.73,6.27,8.79,6.17c4.21-7.61,2.89,1.55,2.89,1.55,0,0,4.74,1.11,4.86,1.17.13.06,3.89,1.71,3.99,1.76s3.19,1.95,3.19,1.95c0,0-.47,3.09-1.71,3.31-1.23.22-8.04,4.84-13.51.22-5.47-4.62-11.3-6.07-10.73-8.45.57-2.37.16-4.14,1.3-4.56,1.14-.41.93-3.13.93-3.13Z"/>
        <path d="M496.77,1338.7l-.8-.31c9.03-23.26-2.55-49.54-25.81-58.57-2.24-.87-4.57-1.57-6.93-2.07l-.54-.12.25-.49c.4-.78.75-1.58,1.06-2.37,5.29-13.62-1.49-29.01-15.12-34.3l.31-.8c14.06,5.46,21.06,21.34,15.6,35.41-.25.65-.54,1.31-.85,1.95,2.22.5,4.41,1.17,6.52,1.99,23.7,9.2,35.5,35.97,26.3,59.67Z"/>
        <path d="M685.5,1163.64c-1.16-20.89-11.44-33.25-19.87-39.93-9.13-7.24-18.09-9.57-18.18-9.59l.21-.83c.09.02,9.22,2.4,18.5,9.75,8.56,6.79,19.02,19.34,20.19,40.55l-.85.05Z"/>
        <path d="M696.41,1262.43c-5.32-25.35-17.04-39.67-25.95-47.22-9.65-8.18-18.15-10.4-18.23-10.42l.21-.83c.09.02,8.75,2.27,18.54,10.56,9.02,7.64,20.9,22.12,26.27,47.73l-.84.18Z"/>
        <path d="M663.49,1209.42l-.34-.78c1.99-.87,7.56-6.56,7.62-6.62l.61.6c-.23.24-5.75,5.87-7.89,6.81Z"/>
        <path d="M429.3,1387.35c-6.71,0-14.53-.98-23.22-3.75-25.58-8.16-25.74-16.75-25.74-17.11h.85s-.43,0-.43,0h.43c0,.09.32,8.37,25.14,16.29,29.11,9.29,48.25-1.74,48.44-1.85l.44.74c-.14.08-9.86,5.68-25.92,5.68Z"/>
        <path d="M481.36,1442.2c-.09-.03-8.81-3.1-18.96-11.44-9.36-7.69-21.91-21.59-28.52-44.08l.82-.24c6.54,22.27,18.95,36.02,28.21,43.64,10.04,8.26,18.64,11.29,18.73,11.32l-.28.81Z"/>
        <path d="M317.28,1402.48l-.62-.59c12.7-13.26,10.92-31.09,10.9-31.27l.85-.09c.02.18,1.85,18.4-11.14,31.95Z"/>
        <path d="M255.88,1409.12c-11.22-7.72-15.49-16.88-17.1-23.2-1.75-6.86-.84-11.83-.81-12.04l.84.16s-.91,5.02.8,11.71c1.58,6.17,5.76,15.11,16.75,22.67l-.48.7Z"/>
        <path d="M221.78,1390.44l-.19-.83c.11-.02,10.8-2.49,16.87-5.75l.4.75c-6.17,3.31-16.97,5.8-17.08,5.83Z"/>
        <path d="M135.89,1262.82c-10.7-6.93-18.49-15.15-23.15-24.43-3.73-7.44-5.47-15.57-5.17-24.16.51-14.62,6.84-25.67,6.91-25.78l.74.43c-.06.11-6.3,11.01-6.79,25.42-.45,13.27,4.03,32.34,27.94,47.81l-.46.72Z"/>
        <path d="M117.46,1298.24l-.84-.16c4.29-22.59,13.96-38.61,14.06-38.76l.73.45c-.1.16-9.69,16.05-13.95,38.48Z"/>
        <path d="M154.37,1063.18l-.39-.76c20.54-10.55,39.98-10.45,52.67-8.51,13.75,2.1,22.78,6.77,22.87,6.82l-.4.76c-.09-.05-9.01-4.66-22.63-6.73-12.56-1.92-31.79-2.01-52.11,8.43Z"/>
        <path d="M211.34,1055.36c-3.09-14.15-3.13-27.82-.13-40.62,2.4-10.24,6.74-19.95,12.9-28.86,10.49-15.17,22.81-22.86,22.93-22.94l.45.73c-.12.08-12.31,7.69-22.7,22.73-9.58,13.86-19.54,37.04-12.62,68.79l-.83.18Z"/>
        <path d="M499.98,978.62c-10.02-23.25-20.89-36.13-28.25-42.85-7.96-7.27-13.63-9.07-13.69-9.09l.25-.82c.24.07,5.86,1.85,13.95,9.22,7.43,6.77,18.41,19.76,28.51,43.19l-.78.34Z"/>
        <path d="M537.24,981.24c-19.19-15.1-41.02-12.48-41.24-12.45l-.11-.85c.22-.03,22.4-2.7,41.88,12.63l-.53.67Z"/>
        <path d="M408.39,963.02l-.22-.68c-.05-.14-4.76-14.25-20.32-15.5-17.95-1.44-23.42,14.6-23.47,14.76l-.81-.27c.06-.17,5.73-16.85,24.35-15.35,14.2,1.15,19.68,12.62,20.83,15.46,1.59-1.5,7.02-6.22,14.78-8.78,8.56-2.81,21.78-3.5,36.16,9.22l-.57.64c-14.07-12.43-26.96-11.79-35.3-9.06-9.06,2.97-14.88,8.97-14.94,9.03l-.5.52Z"/>
      </g>
      <g>
        <path class="cls-5" d="M1931.54,1116.12c-17.79-1.02-59.48-2.8-95.73.26-15,1.26-27.94-10.71-27.61-25.76.14-6.16,2.35-13.32,8.06-21.44,22.01-31.25,60.26-1.41,59.89,14.46,0,0,7.73-23.89,31.22-19.71,23.49,4.18,15.18,38.93,15.18,38.93,0,0,7.58-1.6,12.83,1.99,5.17,3.53,2.38,11.63-3.86,11.27Z"/>
        <path class="cls-3" d="M2442.31,1125.74c19.5-13.87-138.18-50.91-138.18-76.67,0-34.67,147.36-49.67,115.75-59.08,8.2-16.4-42.22-28.39-42.22-47.98,0-67.39.43-128.52-66.95-128.52-11.35,0-22.32,1.58-32.75,4.48-13.58-21.36-37.44-35.55-64.62-35.55-3.18,0-6.3.22-9.38.59-18.4-44.07-61.89-75.05-112.64-75.05-47.26,0-88.21,26.88-108.48,66.17-18.87-11.96-41.22-18.9-65.2-18.9-67.39,0-122.02,54.63-122.02,122.01,0,10.18,1.27,20.07,3.62,29.53-8.4-1.83-17.12-2.82-26.07-2.82-67.39,0-40.04,48.54-40.04,115.92,0,22.33-75.95,49.33-65.48,67.33-10.32,13.04,117.39,3.42,117.39,21.35,0,26.15-120.76,75.32-100.75,89.12-12.6,19.2-19.95,42.15-19.95,66.83,0,67.39,54.63,122.02,122.01,122.02,18.28,0,35.61-4.05,51.18-11.26,7.64,26.85,26.34,47.84,55.31,52.19,32.44,4.87,58.94-5.95,71.91-39.47,10.6,7.77,23.68,12.37,37.84,12.37,16.97,0,32.38-6.61,43.84-17.37,19.25,12.7-12.92,3.38,11.86,3.38,1.48,0,11.84,14.65,13.3,14.6,14.23,51.61,115.82,76.17,176.63,63.82,66.04-13.41,102.05-45.44,116.38-112.52.06-.28-.02-.57-.02-.86,4.7.55,9.47.86,14.31.86,67.39,0,113.16-60.81,113.16-128.2,0-40.34-19.59-76.1-49.77-98.31Z"/>
        <path class="cls-18" d="M2188.42,1376.35c-5.15.95-10.21,2.14-15.16,3.62-.12.03-.24.06-.35.1-.42.12-.84.25-1.26.39-5.19,1.62-10.25,3.55-15.14,5.85-9.99,4.81-19.46,10.43-28.24,17.01-8.77,6.59-16.99,13.8-24.65,21.54-2.79,2.83-5.52,5.72-8.15,8.67-.97,1.09-1.94,2.18-2.88,3.29-.54.62-1.03,1.26-1.55,1.87l3.57,180.43c-21.68,14.22-44.24,27.68-67.58,40.4l5.1-266.35.05-3.01c-7.38-8.27-15.59-16.16-24.15-23.76-10.86-9.65-22.51-18.61-34.35-27.36-6.62-4.87-13.36-9.59-20.19-14.2-.17-.12-.34-.23-.52-.35-.16-.12-.32-.22-.49-.33-5.09-3.43-10.23-6.8-15.41-10.14-.74-.48-1.48-.95-2.23-1.42-11.76-7.49-23.7-14.76-35.89-21.61,13.86,5.42,27.53,11.37,41.09,17.6.78.36,1.55.72,2.33,1.09,4.96,2.31,9.91,4.66,14.84,7.08.2.09.41.19.61.3.16.07.32.15.49.23,7.37,3.62,14.7,7.36,21.95,11.27,3.29,1.79,6.58,3.6,9.85,5.44-.05-.59-.11-1.16-.15-1.75-.58-7.4-.29-14.73.53-21.87.34-2.2.64-4.4,1.02-6.58.24-1.35.51-2.69.83-4.02.69-3.49,1.68-6.91,2.68-10.29.92-3.41,2.31-6.67,3.42-9.97,1.3-3.25,2.75-6.42,4.12-9.61-.68,3.42-1.44,6.79-2.04,10.18-.4,3.43-1.07,6.79-1.26,10.22-.27,3.41-.53,6.79-.46,10.19-.05,1.22-.03,2.44,0,3.65.07,2.15.22,4.29.33,6.42.62,6.65,1.77,13.19,3.6,19.39.46,1.55.93,3.08,1.5,4.58.52,1.51,1.12,2.98,1.75,4.41.61,1.44,1.3,2.85,2,4.17.36.66.7,1.34,1.09,1.94.02.02.03.05.05.08,3.39,2.1,6.78,4.26,10.12,6.47,4.8,3.21,9.57,6.5,14.28,9.95l3.25-68.47.29-6.14,6.33-1.3,1.47-.31,12.53-2.57v-1.23l3.02.62,3.03-.62v1.23l20.33,4.17.8,16.79v.14s.06,1.13.06,1.13l2.91,61.25c2.35-8.27,4.89-16.49,7.64-24.64,3.87-11.4,8.13-22.68,12.98-33.69.15-.35.32-.71.47-1.06.02-.05.05-.09.07-.14,2.2-4.95,4.53-9.85,7-14.67,4.05-7.96,8.5-15.74,13.5-23.12,1.25-1.85,2.54-3.69,3.85-5.49,3.94-5.4,8.18-10.56,12.82-15.33-4.14,5.02-7.84,10.35-11.23,15.87-1.23,2-2.42,4.04-3.58,6.09-4.35,7.66-8.08,15.66-11.42,23.8-1.73,4.19-3.36,8.41-4.9,12.68-.03.09-.07.19-.11.29-.11.31-.22.62-.33.94-4.23,11.89-7.75,24.03-10.82,36.27-4.27,17.06-7.59,34.34-10.26,51.7-.77,5.07-1.47,10.18-2.14,15.3.2-.13.37-.28.57-.41,8.47-5.9,17.29-11.21,26.4-15.95,7.51-10.68,13.08-23.21,17.36-36.15.83-2.54,1.62-5.1,2.36-7.69.08-.29.16-.59.24-.88.06-.19.12-.39.16-.58,1.09-3.92,2.08-7.9,2.95-11.9.78-3.57,1.47-7.16,2.07-10.76.3-1.81.56-3.62.8-5.44.18-1.79.54-3.7.39-5.41.42,1.71.31,3.64.39,5.45.02,1.85,0,3.69-.04,5.54-.08,3.68-.27,7.37-.55,11.06-.42,5.52-1.03,11.05-1.87,16.56-.02.17-.05.35-.08.52-.05.35-.1.69-.16,1.04-.21,1.33-.43,2.65-.66,3.98-1.67,9.12-3.89,18.26-7.12,27.19,6.58-2.62,13.31-4.9,20.08-6.74,4.28-1.13,8.6-2,12.93-2.64.5-.08,1-.15,1.51-.21.12-.02.23-.04.35-.05,6.41-.86,12.84-1.24,19.2-1.23Z"/>
        <path class="cls-17" d="M2442.31,1053.97c19.5-13.87,32.24-36.64,32.24-62.4,0-34.67-23.06-63.94-54.67-73.35,8.2-16.4,12.84-34.9,12.84-54.49,0-67.39-54.63-122.01-122.01-122.01-11.35,0-22.32,1.58-32.75,4.48-13.58-21.36-37.44-35.55-64.62-35.55-3.18,0-6.3.22-9.38.59-18.4-44.07-61.89-75.05-112.64-75.05-47.26,0-88.21,26.88-108.48,66.17-18.87-11.96-41.22-18.9-65.2-18.9-67.39,0-122.02,54.63-122.02,122.01,0,10.18,1.27,20.07,3.62,29.53-8.4-1.83-17.12-2.82-26.07-2.82-67.39,0-122.01,54.63-122.01,122.01,0,22.33,6.03,43.23,16.5,61.24-10.32,13.04-16.5,29.51-16.5,47.44,0,26.15,13.12,49.23,33.14,63.03-12.6,19.2-19.95,42.15-19.95,66.83,0,67.39,54.63,122.02,122.01,122.02,18.28,0,35.61-4.05,51.18-11.26,7.64,26.85,32.33,46.52,61.63,46.52,33.42,0,62.64-23.07,65.6-55.71,10.6,7.77,21.88,9.86,36.04,9.86,16.97,0,32.38-6.6,43.84-17.37,19.25,12.7,42.3,20.11,67.08,20.11,1.48,0,2.94-.06,4.41-.11,14.23,51.61,61.47,89.52,117.61,89.52,67.39,0,106.27-58.08,122.01-122.01.07-.28-.02-.57-.02-.86,4.7.55,9.47.86,14.31.86,67.39,0,122.01-54.63,122.01-122.01,0-40.34-19.59-76.1-49.77-98.31Z"/>
        <circle class="cls-17" cx="1921.08" cy="1037.97" r="65.06" transform="translate(469.51 2669.18) rotate(-76.72)"/>
        <circle class="cls-17" cx="1966.52" cy="968.36" r="38.35" transform="translate(319.32 2414.61) rotate(-67.5)"/>
        <circle class="cls-17" cx="2319.89" cy="827.74" r="38.35" transform="translate(981.29 2895.39) rotate(-76.72)"/>
        <circle class="cls-17" cx="2363.68" cy="869.34" r="44" transform="translate(-152.76 970.71) rotate(-22.5)"/>
        <circle class="cls-17" cx="2152.05" cy="1210.05" r="56.64" transform="translate(-225.31 1876.14) rotate(-45)"/>
        <ellipse class="cls-17" cx="2127.91" cy="1132.8" rx="33.95" ry="34.62"/>
        <circle class="cls-17" cx="2116.03" cy="739.03" r="51.64" transform="translate(-108.63 465.86) rotate(-12.25)"/>
        <circle class="cls-17" cx="2047.59" cy="713.93" r="33.95" transform="translate(1144.32 2685.33) rotate(-84.61)"/>
        <circle class="cls-17" cx="1778.27" cy="1253.03" r="51.64" transform="translate(203.13 2753.46) rotate(-78.78)"/>
        <circle class="cls-17" cx="1725.49" cy="1202.75" r="33.95" transform="translate(-317.91 1701.19) rotate(-48.59)"/>
        <circle class="cls-17" cx="2304.91" cy="1034.46" r="65.06"/>
        <circle class="cls-17" cx="2230.54" cy="994.47" r="38.35" transform="translate(-125.66 1636.83) rotate(-39.28)"/>
        <circle class="cls-17" cx="1920.56" cy="799.03" r="65.06" transform="translate(404.8 2223.62) rotate(-65.81)"/>
        <circle class="cls-17" cx="2003.81" cy="792.15" r="38.35" transform="translate(1136.22 2764.46) rotate(-87.83)"/>
        <circle class="cls-17" cx="1915.13" cy="1250.57" r="65.06" transform="translate(-323.36 1720.48) rotate(-45)"/>
        <circle class="cls-17" cx="1854.78" cy="1193.79" r="38.35" transform="translate(-189.08 2023.26) rotate(-54.86)"/>
        <path class="cls-17" d="M1829.75,997.36c-.81-21.17-18.63-37.67-39.8-36.86-21.17.81-37.67,18.63-36.86,39.8.05,1.27.16,2.51.33,3.74-3.39-.41-6.86-.56-10.38-.43-35.9,1.38-63.89,31.6-62.52,67.5,1.38,35.9,31.6,63.89,67.5,62.52,35.9-1.38,63.89-31.6,62.52-67.5-.42-11.08-3.6-21.41-8.84-30.35,16.74-4.64,28.74-20.3,28.05-38.42Z"/>
        <circle class="cls-17" cx="2055.35" cy="917.18" r="65.06" transform="translate(1032.09 2921.83) rotate(-87.01)"/>
        <circle class="cls-17" cx="2134.7" cy="942.07" r="38.35" transform="translate(-191.7 762.39) rotate(-19.4)"/>
        <path d="M1679.92,1071.14c-1.39-36.18,26.92-66.75,63.1-68.13,3.22-.12,6.49,0,9.7.34-.12-1.02-.2-2.03-.24-3.03-.4-10.4,3.28-20.33,10.35-27.97,7.07-7.64,16.69-12.06,27.09-12.46l.05,1.22c-10.07.39-19.4,4.67-26.25,12.07-6.85,7.4-10.41,17.02-10.02,27.09.05,1.21.16,2.45.32,3.68l.11.78-.78-.09c-3.4-.41-6.86-.55-10.29-.42-35.51,1.36-63.29,31.36-61.93,66.87l-1.22.05Z"/>
        <path d="M1855.14,1040.9c-1.39-36.18,26.92-66.74,63.1-68.13,3.23-.12,6.49,0,9.7.34-.12-1.02-.2-2.03-.24-3.03-.4-10.4,3.28-20.33,10.35-27.97,7.07-7.64,16.69-12.06,27.09-12.46l.05,1.22c-10.07.39-19.4,4.67-26.25,12.07-6.85,7.4-10.41,17.02-10.02,27.09.05,1.21.16,2.44.32,3.68l.11.78-.78-.09c-3.4-.41-6.87-.55-10.29-.42-35.51,1.36-63.29,31.36-61.93,66.87l-1.22.05Z"/>
        <path d="M2171.15,930.19c-3.14-9.58-9.83-17.36-18.83-21.91-9-4.55-19.23-5.33-28.81-2.18-1.15.38-2.31.82-3.45,1.32l-.72.32-.12-.78c-.54-3.38-1.36-6.75-2.42-10.01-11.08-33.77-47.56-52.22-81.33-41.14l-.38-1.16c34.4-11.29,71.57,7.52,82.86,41.92,1.01,3.07,1.79,6.23,2.34,9.42.95-.39,1.9-.75,2.84-1.06,9.89-3.24,20.45-2.44,29.74,2.25,9.29,4.7,16.19,12.73,19.43,22.62l-1.16.38Z"/>
        <path d="M2362.3,1006.56c-7.49-15.5-20.56-27.16-36.82-32.83-16.25-5.67-33.74-4.66-49.25,2.82-3.08,1.49-6.07,3.24-8.89,5.2l-.65.45-.27-.74c-.43-1.17-.92-2.32-1.44-3.4-9.05-18.74-31.66-26.62-50.41-17.57l-.53-1.1c19.35-9.34,42.69-1.21,52.03,18.14.43.89.84,1.83,1.21,2.78,2.68-1.82,5.51-3.45,8.41-4.85,15.79-7.63,33.61-8.65,50.17-2.88,16.56,5.77,29.88,17.65,37.51,33.44l-1.1.53Z"/>
        <path d="M1979.41,1237.53c-7.12-34.82-41.23-57.36-76.05-50.24-3.35.68-6.68,1.65-9.89,2.85l-.74.28-.08-.78c-.13-1.25-.32-2.48-.56-3.65-2.02-9.88-7.76-18.38-16.18-23.94-8.41-5.56-18.49-7.51-28.36-5.49l-.24-1.19c10.2-2.08,20.59-.07,29.28,5.66s14.61,14.51,16.7,24.71c.2.97.36,1.98.49,2.99,3.04-1.11,6.18-1.99,9.35-2.64,35.47-7.25,70.23,15.71,77.48,51.19l-1.19.24Z"/>
        <path d="M1781.73,1305.64c-16.26,0-30.47-5.28-40.57-15.2-10.87-10.67-16.13-25.98-14.83-43.11.19-2.5.9-5.03,1.59-7.49.23-.82.45-1.6.65-2.36-1.04,0-2.03-.04-3.02-.11-21.42-1.63-37.53-20.38-35.9-41.8l1.21.09c-1.58,20.75,14.02,38.92,34.78,40.5,1.2.09,2.45.12,3.7.1l.79-.02-.18.77c-.25,1.03-.54,2.07-.85,3.17-.67,2.4-1.37,4.87-1.55,7.25-1.27,16.77,3.86,31.74,14.47,42.15,11.34,11.14,28.02,16.29,46.98,14.5l.11,1.21c-2.5.24-4.96.35-7.38.35Z"/>
        <path class="cls-17" d="M2141.29,1140.34s12.44,8.93,12.51,8.79c5.99-10.84,4.11,2.21,4.11,2.21,0,0,6.75,1.58,6.93,1.67.18.09,5.54,2.44,5.69,2.51.15.07,4.54,2.78,4.54,2.78,0,0-.67,4.4-2.43,4.72-1.76.32-11.44,6.89-19.24.32-7.8-6.58-16.09-8.65-15.27-12.03.81-3.38.23-5.9,1.85-6.49,1.62-.59,1.32-4.46,1.32-4.46Z"/>
        <path d="M2205.12,1238.63l-1.13-.44c12.86-33.13-3.63-70.54-36.76-83.4-3.19-1.24-6.51-2.23-9.86-2.95l-.77-.17.36-.7c.56-1.11,1.07-2.25,1.51-3.38,7.53-19.4-2.13-41.32-21.53-48.85l.44-1.13c20.03,7.77,30,30.39,22.22,50.42-.36.93-.77,1.86-1.21,2.78,3.16.72,6.28,1.67,9.29,2.84,33.75,13.1,50.55,51.22,37.45,84.98Z"/>
        <path d="M2473.9,989.33c-1.65-29.75-16.3-47.34-28.29-56.86-13-10.32-25.76-13.63-25.88-13.66l.3-1.18c.13.03,13.13,3.41,26.34,13.89,12.19,9.67,27.08,27.54,28.75,57.75l-1.21.07Z"/>
        <path d="M2489.43,1130.01c-7.57-36.1-24.27-56.5-36.95-67.25-13.74-11.65-25.85-14.81-25.97-14.84l.3-1.18c.12.03,12.46,3.24,26.4,15.04,12.85,10.87,29.76,31.5,37.41,67.97l-1.19.25Z"/>
        <path d="M2442.55,1054.53l-.49-1.11c2.83-1.24,10.77-9.35,10.85-9.43l.87.85c-.33.34-8.19,8.36-11.23,9.69Z"/>
        <path d="M2109.05,1307.92c-9.56,0-20.69-1.39-33.07-5.34-36.43-11.62-36.66-23.86-36.65-24.37l1.22.02h-.61s.61,0,.61,0c0,.12.45,11.92,35.8,23.2,41.45,13.22,68.72-2.48,68.99-2.64l.62,1.05c-.19.11-14.04,8.09-36.91,8.09Z"/>
        <path d="M2183.19,1386.03c-.12-.04-12.54-4.41-27-16.29-13.33-10.96-31.2-30.74-40.62-62.78l1.17-.34c9.32,31.71,26.99,51.3,40.18,62.15,14.3,11.76,26.55,16.07,26.67,16.12l-.4,1.15Z"/>
        <path d="M1949.53,1329.47l-.88-.84c18.09-18.89,15.56-44.28,15.53-44.53l1.21-.13c.03.26,2.63,26.2-15.86,45.51Z"/>
        <path d="M1862.08,1338.92c-15.98-11-22.06-24.04-24.35-33.04-2.49-9.77-1.2-16.84-1.15-17.14l1.2.23c-.01.07-1.29,7.15,1.15,16.68,2.25,8.78,8.21,21.51,23.85,32.28l-.69,1Z"/>
        <path d="M1813.52,1312.32l-.27-1.19c.15-.03,15.38-3.55,24.02-8.18l.58,1.07c-8.78,4.71-24.17,8.26-24.32,8.3Z"/>
        <path d="M1691.2,1130.57c-15.24-9.86-26.34-21.57-32.97-34.8-5.32-10.59-7.79-22.17-7.37-34.41.72-20.82,9.75-36.56,9.84-36.72l1.05.61c-.09.15-8.98,15.68-9.68,36.2-.64,18.9,5.74,46.06,39.79,68.09l-.66,1.02Z"/>
        <path d="M1664.95,1181.02l-1.2-.23c6.11-32.16,19.89-54.98,20.02-55.2l1.04.63c-.14.22-13.81,22.86-19.87,54.8Z"/>
        <path d="M1717.53,846.27l-.56-1.08c29.25-15.03,56.93-14.89,75-12.12,19.58,2.99,32.44,9.64,32.56,9.71l-.56,1.08c-.13-.07-12.83-6.63-32.23-9.59-17.88-2.73-45.27-2.86-74.22,12.01Z"/>
        <path d="M1798.65,835.13c-4.4-20.16-4.46-39.62-.19-57.85,3.42-14.59,9.6-28.42,18.38-41.1,14.94-21.6,32.49-32.56,32.66-32.67l.64,1.04c-.17.11-17.53,10.96-32.33,32.36-13.64,19.73-27.83,52.75-17.97,97.96l-1.19.26Z"/>
        <path d="M2209.7,725.85c-14.27-33.1-29.75-51.45-40.23-61.02-11.34-10.35-19.41-12.92-19.49-12.95l.36-1.16c.34.1,8.35,2.64,19.87,13.14,10.59,9.65,26.22,28.15,40.61,61.51l-1.12.48Z"/>
        <path d="M2262.77,729.58c-27.33-21.5-58.42-17.78-58.73-17.74l-.16-1.21c.32-.04,31.9-3.84,59.64,17.99l-.75.96Z"/>
        <path d="M2079.28,703.63l-.31-.97c-.07-.2-6.78-20.29-28.93-22.08-25.56-2.06-33.35,20.79-33.43,21.02l-1.16-.38c.08-.24,8.15-23.99,34.68-21.86,20.22,1.63,28.03,17.97,29.66,22.02,2.26-2.13,9.99-8.86,21.05-12.5,12.19-4,31.01-4.98,51.5,13.13l-.81.91c-20.03-17.71-38.39-16.79-50.26-12.9-12.91,4.23-21.19,12.78-21.27,12.86l-.71.74Z"/>
      </g>
      <path class="cls-5" d="M559.51,780.93c5.95,0,5.96-9.25,0-9.25s-5.96,9.25,0,9.25h0Z"/>
      <path class="cls-5" d="M366.23,505.41c5.95,0,5.96-9.25,0-9.25s-5.96,9.25,0,9.25h0Z"/>
      <path class="cls-5" d="M84.54,752.15c5.95,0,5.96-9.25,0-9.25s-5.96,9.25,0,9.25h0Z"/>
      <path class="cls-5" d="M808.31,271.01c5.95,0,5.96-9.25,0-9.25s-5.96,9.25,0,9.25h0Z"/>
      <path class="cls-5" d="M964.57,472.51c5.95,0,5.96-9.25,0-9.25s-5.96,9.25,0,9.25h0Z"/>
      <path class="cls-5" d="M1217.48,268.95c5.95,0,5.96-9.25,0-9.25s-5.96,9.25,0,9.25h0Z"/>
      <path class="cls-5" d="M1793.2,416.99c5.95,0,5.96-9.25,0-9.25s-5.96,9.25,0,9.25h0Z"/>
      <path class="cls-5" d="M844.48,684.11c5.95,0,5.96-9.25,0-9.25s-5.96,9.25,0,9.25h0Z"/>
      <path class="cls-5" d="M1312.06,583.54c5.95,0,5.96-9.25,0-9.25s-5.96,9.25,0,9.25h0Z"/>
      <path class="cls-5" d="M1760.31,143.53c5.95,0,5.96-9.25,0-9.25s-5.96,9.25,0,9.25h0Z"/>
      <path class="cls-5" d="M1953.58,540.36c5.95,0,5.96-9.25,0-9.25s-5.96,9.25,0,9.25h0Z"/>
      <path class="cls-5" d="M1106.45,670.16c8.93,0,8.95-13.88,0-13.88s-8.95,13.88,0,13.88h0Z"/>
      <path class="cls-5" d="M329.22,318.56c8.93,0,8.95-13.88,0-13.88s-8.95,13.88,0,13.88h0Z"/>
      <path class="cls-5" d="M209.96,875.77c8.93,0,8.95-13.88,0-13.88s-8.95,13.88,0,13.88h0Z"/>
      <path class="cls-5" d="M1402.54,727.73c8.93,0,8.95-13.88,0-13.88s-8.95,13.88,0,13.88h0Z"/>
      <g>
        <path class="cls-16" d="M1487.37,1093.56l-169.08-31.43-57.98-155.02-73.21-12.63s23.34,254.12,50.36,268.41c27.02,14.3,223.89,50.64,223.89,50.64l26.03-119.98Z"/>
        <path class="cls-13" d="M1533.56,976.3l2.86-15.54c2.92-15.9,15.53-28.35,31.52-30.76,27.6-4.15,54.56,13.66,54.56,13.66,0,0,7.56,17.48,8.24,19.49.68,2-10.88-6.31-10.88-6.31l-86.3,19.47Z"/>
        <path class="cls-13" d="M1524.7,1024.56l12.05-65.56,88.56-9.78-12.02,80.39-4.5,20.49s-1.86,43.04-5.42,51.47c-3.57,8.42-19.48,23.66-42.9,19.36-7.39-1.36-13.67-3.82-18.8-6.55-10.51-5.58-15.41-17.98-11.85-29.34l9.57-30.55c-19.96-6.69-14.68-29.94-14.68-29.94Z"/>
        <path class="cls-12" d="M1584.42,998.8c-.23-.13-.4-.34-.47-.62-.18-.71-4.67-17.28-18.66-14.93-.54.09-1.05-.27-1.14-.81-.09-.54.27-1.05.81-1.14,15.79-2.66,20.86,16.2,20.91,16.39.14.53-.18,1.07-.71,1.21-.26.07-.52.03-.73-.09Z"/>
        <path class="cls-12" d="M1546.59,978.1c-.23.04-.47,0-.68-.13-.1-.06-9.7-5.75-13.63-.99-.35.42-.97.48-1.4.13-.42-.35-.48-.97-.13-1.4,5.02-6.08,15.73.28,16.18.55.47.28.62.89.34,1.36-.15.26-.41.42-.68.47Z"/>
        <path d="M1542.56,992.49c-.14.02-.28,0-.41-.08-.06-.04-5.87-3.48-8.25-.6-.21.26-.59.29-.85.08-.26-.21-.29-.59-.08-.85,3.04-3.68,9.52.17,9.79.33.28.17.38.54.2.82-.09.16-.25.25-.41.28Z"/>
        <path d="M1567.15,1000.63c.3-1.62,1.85-2.69,3.47-2.39,1.62.3,2.69,1.85,2.39,3.47-.3,1.62-1.85,2.69-3.47,2.39-1.62-.3-2.69-1.85-2.39-3.47Z"/>
        <path class="cls-6" d="M1649.99,968.84c2.3,22.84-10.52,32.34-11.93,38.76s-5.03,50.82-35.04,41.95l4.97-73.52,15.92-26.71-1.24-6.69s25.01,3.37,27.32,26.21Z"/>
        <path class="cls-13" d="M1605.86,1024.85c-9.7-1.78-16.12-11.09-14.34-20.8,1.78-9.7,11.09-16.12,20.8-14.34,9.7,1.78,16.12,11.09,14.34,20.8-1.78,9.7-11.09,16.12-20.79,14.34Z"/>
        <path class="cls-14" d="M1614.34,1006.27c-4.37-3.97-9.3-.68-9.51-.53l-1.47,1.01.74-1.62c1.31-2.89,3.22-4.77,5.66-5.58,4.23-1.4,8.49.91,8.67,1,.24.13.33.43.19.67-.13.24-.43.33-.67.2-.04-.02-4.08-2.2-7.89-.93-1.76.59-3.22,1.82-4.34,3.67,2.02-.86,5.84-1.76,9.28,1.37,2.33,2.12,2.84,5.47,1.3,8.54-1.31,2.59-4.25,4.89-7.9,4.22-.03,0-.07-.01-.1-.02-.27-.05-.44-.31-.39-.58.05-.27.31-.44.58-.39.04,0,.07.01.1.02,3.35.62,5.77-1.59,6.83-3.69,1.02-2.02,1.34-5.16-1.08-7.36Z"/>
        <path class="cls-14" d="M1539.37,1054.5s30.58,12.21,51.17-11.17c0,0-8.58,38.95-58.23,33.7l7.06-22.53Z"/>
        <path class="cls-14" d="M1553.72,1018.23c-.1.19-.32.29-.52.25-.05,0-.1-.03-.15-.05l-9.91-5.43,7.58-23.24c.08-.26.36-.41.63-.32.26.08.4.36.32.62l-7.32,22.45,9.19,5.03c.24.13.33.43.2.67Z"/>
        <polygon class="cls-13" points="1611.18 1022.02 1608.51 1055.69 1596.73 1054.51 1602.81 1021.42 1611.18 1022.02"/>
        <path class="cls-6" d="M1571.33,911.1c21.18,11.5,63.11,18.21,71.01,41.25,7.9,23.04-34.54,24.7-34.54,24.7,0,0-73.79-18.13-75.18-36.45-1.39-18.32,16.24-15.56,16.24-15.56,0,0,1.28-25.44,22.46-13.94Z"/>
        <path class="cls-6" d="M1595.26,970.75c-8.25-6.44,18.66-6.62,19.38-6.08.72.54,14.34,10.98,12.41,10.28-1.93-.7-16.95-2.3-16.95-2.3l-2.96,16.11s-7.98,8.33-8.12,20.75c0,0-4.87.84-4.97-3.08-.1-3.92,9.48-29.24,1.22-35.68Z"/>
        <path class="cls-7" d="M1539.69,1021.22s20.75,2.25,21.08,2.35c0,0-3.77,8.19-11.48,7.33-7.71-.86-9.59-9.68-9.59-9.68Z"/>
        <path class="cls-13" d="M1875.19,1605.84c-2.11,3.18-6.4,4.06-9.59,1.95h0c-3.19-2.11-4.06-6.4-1.95-9.59l20.11-39.74c1.38-2.08,6.26-3.08,10.38-2.95,39.27-11.15,43.75-19.01,54.61-21.04l1.54,8.52,7.37,40.96c2.09,12.42,6.42,24.35,12.78,35.21l1.6,2.73c2.01,3.43.73,7.87-2.88,9.68-3.29,1.65-7.32.28-9.18-2.9l-11.58-19.78c-.36-.62-1.08-.94-1.78-.8-1.04.21-1.62,1.32-1.22,2.3l13.08,31.23c1.5,3.58-.38,7.14-4.19,7.91-3.8.77-8.14-1.52-9.64-5.1l-13.34-31.84c-.31-.74-1.1-1.16-1.88-1l-.56.11c-.91.18-1.5,1.07-1.31,1.98l7.62,37.53c.73,3.61-1.35,7.32-4.91,8.28-3.9,1.06-7.81-1.4-8.6-5.3l-7.67-37.76c-.18-.91-1.07-1.5-1.98-1.31l-1.76.36c-.83.17-1.4.92-1.34,1.76l2.51,35.71c.26,3.68-2.29,7.08-5.94,7.57-4,.54-7.56-2.41-7.84-6.37,0,0-6.75-54.25-8.49-62.64l-13.96,14.32Z"/>
        <path class="cls-15" d="M1620.05,1548.09l-107.34-60.69c-17.14-9.69-38.84-1.07-44.67,17.73l-1.06,3.41c-.51,1.66-.89,3.36-1.11,5.08l-42.03,313.73c36.59-3.55,72.96-7.97,108.95-13.33,19.56-2.91,38.99-6.11,58.31-9.57,21.63-105.82,38.67-194.29,44.12-223.95,2.38-12.94-3.71-25.94-15.17-32.42Z"/>
        <path class="cls-19" d="M1539.97,1455.12l32.74,175.97,4.43,175.81c55.4-9.51,109.74-21.28,162.45-35.43,8.88-124.15,21.49-214.07,21.49-214.07l-221.11-102.28Z"/>
        <path d="M1576.06,1711.37c-.02-.73-.62-1.29-1.35-1.29-.73.02-1.3.62-1.29,1.35l2.41,95.69c.88-.15,1.75-.3,2.63-.45l-2.4-95.31Z"/>
        <path d="M1425.7,1827.17l26.89-203.16c.1-.72-.37-1.41-1.14-1.49-.73-.1-1.39.41-1.49,1.14l-26.97,203.76c.9-.09,1.8-.17,2.71-.26Z"/>
        <path class="cls-16" d="M1787.8,1376.61c-13.85-15.86-61.48-74.48-61.48-74.48l37,282.6s-155.48,56.08-312.9,13.33c0,0-11.49-263.91-17.64-437.73-1.04-29.38-1.58-42.92,3.93-50.78,2.67-3.82,5.52-7.66,12.08-8.97,54.38-10.85,167.8-27.58,193.26-21.94,53.03,11.75,256.91,191.67,270.45,227.87,13.54,36.2,55.95,234.03,55.95,234.03,0,0-17.67,19.02-106.8,25,0,0-60-173.06-73.84-188.92Z"/>
        <path d="M1894.49,1564.33c-17.64,2.36-31.38,3.18-32.72,3.25l-1.68.1-.44-1.62c-19.79-73.27-70.86-182.5-73.61-188.33l-100.78-121.57c-.73-.88-.61-2.18.27-2.91.88-.73,2.18-.6,2.91.27l100.95,121.77.28.44c.53,1.12,52.87,112.36,73.52,187.62,11.56-.8,79.75-6.25,104.01-24.48.91-.68,2.21-.5,2.9.41.69.91.5,2.21-.41,2.9-16.19,12.16-49.76,18.76-75.2,22.16Z"/>
        <path d="M1747.44,1463.38s0,0,0,0c-1.13.15-2.17-.65-2.32-1.78l-20.84-159.21c-.15-1.13.65-2.17,1.78-2.32,0,0,0,0,0,0,1.13-.15,2.17.65,2.32,1.78l20.84,159.21c.15,1.13-.65,2.17-1.78,2.32Z"/>
        <path d="M1856.59,1244.91c-131.31-123.02-203.25-160.04-203.96-160.4-1.02-.52-1.43-1.76-.91-2.78.51-1.02,1.75-1.43,2.78-.91.72.36,73.1,37.57,204.92,161.07.83.78.88,2.09.1,2.92-.34.36-.78.57-1.23.63-.59.08-1.22-.1-1.69-.54Z"/>
        <path d="M1670.75,1604.58c1.08-.09,2.19.58,2.38,1.7.19,1.13-.58,2.19-1.7,2.38-6.78,1.12-13.41,2.11-19.92,2.98-125.67,16.78-201.04-11.36-201.82-11.66l-1.27-.49-17.46-459.13c-.05-1.14.88-2.1,1.98-2.15,1.14-.05,2.1.84,2.15,1.98l17.35,456.38c10.9,3.76,91.14,29.05,218.32,8.01Z"/>
        <g>
          <polygon class="cls-8" points="1386.4 945.58 1509.79 984.91 1517.27 963.39 1396.09 917.71 1386.4 945.58"/>
          <polygon class="cls-4" points="1298.68 924.65 1422.75 962.04 1434.81 927.34 1314.3 879.71 1298.68 924.65"/>
          <polygon class="cls-8" points="1127.65 881.13 1296.64 930.51 1316.34 873.85 1153.16 807.76 1127.65 881.13"/>
          <rect class="cls-4" x="1513.33" y="961.31" width="7.23" height="28.06" transform="translate(2629.53 2394.69) rotate(-160.83)"/>
          <rect class="cls-4" x="1133.38" y="795.4" width="7.23" height="95.71" transform="translate(1934.09 2013.08) rotate(-160.83)"/>
        </g>
        <g>
          <path class="cls-13" d="M1242.3,851.34l4.84-21.36s-2.18-4.28-6.37-5.09c-4.2-.82-6.86,1.5-7.02,2.19l-4.87,21.45c-.59,2.6,1.6,5.4,5.14,6.27,3.88.95,7.64-.66,8.28-3.46Z"/>
          <path class="cls-13" d="M1228.17,849.55l6-23.58s-1.23-2.72-5.41-3.59c-4.18-.87-7.93.5-8.1,1.18l-5.86,23c-.66,2.58,1.46,5.41,4.98,6.33,3.86,1.01,7.67-.55,8.38-3.33Z"/>
          <path class="cls-13" d="M1214.02,847.09l5.95-21.89s-1.11-2.54-4.99-3.38c-3.89-.85-7.4.4-7.57,1.04l-5.8,21.35c-.65,2.4,1.28,5.04,4.55,5.93,3.58.97,7.16-.45,7.87-3.03Z"/>
          <path class="cls-14" d="M1243.56,851.58l4.8-21.14c.12-.51-.36-1.03-1.06-1.17-.7-.14-1.35.17-1.47.67l-4.8,21.14c-.25,1.11-1.1,2.01-2.38,2.55-1.29.54-2.83.63-4.34.26-2.83-.69-4.65-2.94-4.16-5.12l5.35-23.08c.12-.51-.35-1.03-1.05-1.17-.61-.12-1.18.09-1.4.48-.03.06-.06.12-.07.19l-5.35,23.09c-.71,3.14,1.97,6.4,6.11,7.41,2.21.54,4.47.41,6.35-.38,1.85-.78,3.12-2.14,3.49-3.73Z"/>
          <path class="cls-13" d="M1254.69,856.42l5.25-21.48c.58-2.39-2.5-5.18-4.92-5.72-4.17-.94-7.92.54-8.08,1.23l-5.63,23.01c-.62,2.53,1.39,5.32,4.82,6.28,3.93,1.1,7.86-.48,8.55-3.33Z"/>
          <path class="cls-14" d="M1255.95,856.68l5.15-21.07c.12-.51-.34-1.03-1.04-1.17-.7-.14-1.36.15-1.49.65l-5.15,21.07c-.27,1.1-1.13,2-2.43,2.53-1.3.53-2.84.6-4.35.22-2.82-.72-4.61-2.98-4.08-5.15l5.74-23c.13-.5-.34-1.03-1.03-1.18-.61-.13-1.19.08-1.41.46-.03.06-.06.12-.08.19l-5.75,23.01c-.77,3.13,1.87,6.41,5.99,7.46,2.21.56,4.47.45,6.36-.32,1.87-.76,3.16-2.11,3.55-3.7Z"/>
          <path class="cls-14" d="M1229.43,849.82l6-23.58c.13-.5-.33-1.03-1.03-1.18-.7-.15-1.37.14-1.49.65l-6,23.58c-.28,1.11-1.15,1.99-2.45,2.51-1.3.52-2.85.59-4.35.19-2.8-.73-4.36-2.77-3.81-4.94l6.13-22.32c.14-.5-.31-1.03-1.01-1.19-.62-.14-1.22.07-1.44.47-.03.05-.05.11-.07.16l-6.14,22.33c-.8,3.15,1.59,6.21,5.7,7.27,2.2.57,4.46.47,6.36-.29,1.88-.75,3.19-2.09,3.59-3.68Z"/>
          <path class="cls-14" d="M1216.1,847.73l5.95-21.89c.14-.5-.32-1.03-1.01-1.19-.69-.15-1.37.14-1.5.63l-5.95,21.89c-.27,1.01-1.09,1.81-2.29,2.28-1.2.46-2.62.52-4,.14-2.57-.69-4.16-2.79-3.62-4.76l5.8-21.35c.14-.5-.32-1.03-1.01-1.19-.61-.14-1.21.07-1.44.47-.03.05-.05.11-.07.16l-5.8,21.35c-.8,2.93,1.61,6.05,5.48,7.09,2.07.56,4.2.48,6.01-.22,1.78-.69,3.04-1.94,3.44-3.43Z"/>
        </g>
      </g>
    </g>
  </g>
</svg>