<?xml version="1.0" encoding="UTF-8"?>
<svg id="Vrstva_2" data-name="Vrstva 2" xmlns="http://www.w3.org/2000/svg" viewBox="0 0 1931.58 1442.58">
  <defs>
    <style>
      .cls-1 {
        fill: #9bd2ca;
      }

      .cls-2 {
        fill: #92b158;
      }

      .cls-3 {
        fill: #551e1f;
      }

      .cls-4 {
        fill: #ffe5c1;
      }
    </style>
  </defs>
  <g id="Capa_1" data-name="Capa 1">
    <g>
      <path class="cls-2" d="M1918.54,1129.08c-.65-5.43-4.28-14.46-5.84-19.7-2.29-7.69-2.3-14.35-6.57-21.16-12.89-20.62-26.95-23.96-51.08-27-24.13-3.04-63.29,12.63-78.8,31.37-1.25-24.13,1.72-67.77-3.65-91.21-4.81-21.03-10.58-43.15-24.08-59.84-28.42-35.13-65.44-60.84-109.75-53.98,3.55-17.61,6.43-35.46,8.62-53.54,3.33-27.54,5.05-55.57,5.05-84,0-47.16-4.72-93.22-13.7-137.73-42.35-209.86-179.58-385.35-365-479.79-81.02-41.26-171.25-67.04-266.78-73.46-15.56-1.05-31.25-1.58-47.07-1.58-101.82,0-198.51,21.97-285.58,61.44-5.77-2.97-13.63,1.2-20.09.38-17.16-2.16-44.6,17.48-55.63,30.81-.89-17.16-.46-51.79-4.28-68.46-3.43-14.96-11.8-30.92-21.4-42.79-21.88-27.05-47.64-32.8-81.3-23.96-23.25,6.11-34.81,20.4-47.07,41.08s-20.72,57.26-20.54,81.3c-12.74-21.93-39.73-42.65-64.18-35.95-17.27,4.74-25.87,12.04-35.09,27.39-11.46,19.07-8.27,45.2-9.41,66.75l214.91,11.37c-160.16,126.85-262.9,323.02-262.9,543.2,0,13.08.36,26.09,1.08,39,1.59,28.69,4.93,56.91,9.91,84.56-18.41-6.71-29.04,2.41-48,7.39-26.4,6.93-49.79,27.59-63.7,51.08-13.92,23.48-24.84,59.24-24.64,86.54-14.46-24.89-46.15-49.68-73.92-42.06-19.61,5.38-32.2,15.02-42.67,32.45-13.01,21.66-13.12,60.86-14.42,85.34l352.45,7.87c55.2,93.29,131.66,172.51,222.71,230.99,56.07,36.01,117.67,64.15,183.24,82.87,60.53,17.28,124.43,26.54,190.51,26.54,56.72,0,111.85-6.82,164.61-19.69,153.16-37.34,286.37-125.61,380.67-245.86l410.45-15.85c.86-7.39,3.51-27.16,2.92-32.11Z"/>
      <path class="cls-1" d="M1638.73,612.3c-12.7-3.61-26.05-3.2-38.18,2.89-20.82,10.46-37.66,35.74-60.4,30.66-19.92-4.45-26.89-30.29-22.58-50.23s15.76-38.14,17.62-58.46c1.86-20.32-12.54-44.81-32.73-41.86-20.53,3-27.05,30.18-22.79,50.48,4.25,20.31,14.31,40.93,8.47,60.83-6.72,22.91-32.02,35.04-55.58,38.93-23.55,3.9-48.3,2.52-70.51,11.31-48.97,19.37-70.57,81.38-119.53,100.79-51.76,20.52-115.04-24.23-119.83-79.7-4.8-55.47,41.82-107.88,96.68-117.39,39.11-6.78,90.45-1.14,107.16-37.15,10.87-23.42-2.29-51.75-21.52-68.98-29.54-26.48-71.55-36.03-100.12-63.54-45.95-44.25-41.41-122.66-7.25-176.54,16.27-25.66,43.42-55.32,76.08-81.83-81.02-41.26-171.25-67.04-266.78-73.46-46.07,12.28-101.12,4.77-131.45,40.61-16.86,19.92-21.02,43.68-11.08,67.87,6.88,16.73,15.28,36.05,6.53,51.89-12.48,22.6-47.08,17.49-68.51,31.9-24.87,16.73-24.3,53.75-14.98,82.23,9.33,28.48,24.81,56.89,20.4,86.54-5.89,39.52-44.8,65.22-82.36,78.85-37.55,13.62-78.91,21.25-109.3,47.18-48.69,41.55-19.78,86.11-1.94,132.6,17.32,45.1,39.86,67.64,72.18,100.49,24.42,24.83,37.59,51.19,73.71,62.86,53.48,17.26,117.07-2.75,164.7,27.07,21.06,13.18,37.23,35.34,61.35,41.29,8.42,2.07,17.53,2.05,25.15,6.19,65.31,35.5-118.68,181.25-137.43,203.18-69.61,81.43-107.1,189.29-104.55,296.26,60.53,17.28,124.43,26.54,190.51,26.54,56.72,0,111.85-6.82,164.61-19.69-.04-17.69-.08-35.37-.11-53.06-.13-63.64-.2-127.91,13.84-189.99,14.04-62.07,43.61-122.66,93.29-162.44,45.32-36.3,105.5-54.19,142.12-99.26,19.15-23.57,30.09-52.64,46.28-78.34,16.19-25.7,40.7-49.48,71-51.5,55.8-3.72,106.99,65.87,156.48,45.73,3.33-27.54,5.05-55.57,5.05-84,0-47.16-4.72-93.22-13.7-137.73Z"/>
      <path class="cls-1" d="M623.64,935.49c7.14-78.73-34.32-156.98-97.11-203.07-39.39-28.91-84.35-44.32-132.74-30.77-48.54,13.61-71.08,61.22-114.78,82.87-3.47,1.72-7.01,3.21-10.61,4.5,1.59,28.69,4.93,56.91,9.91,84.56-18.41-6.71-29.04,2.41-48,7.39-26.4,6.93-49.79,27.59-63.7,51.08-13.92,23.48-24.84,59.24-24.64,86.54-14.46-24.89-46.15-49.68-73.92-42.06-19.61,5.38-32.2,15.02-42.67,32.45-13.01,21.66-13.12,60.86-14.42,85.34l352.45,7.87c55.2,93.29,131.66,172.51,222.71,230.99-20.23-71.56-29.09-144.46-13.03-216.64,13.64-61.29,44.87-118.51,50.54-181.03Z"/>
      <path class="cls-4" d="M908.11,109.34c-10.33,2.56-16.78,11.23-19.41,21.19-3.35,12.65-.03,24.84,3.39,37.08,3.54,12.71,5.95,25.3.35,37.77-4.42,9.82-12,17.83-19.59,25.29-15.5,15.25-33.48,29.84-39.61,51.65-7.93,28.23,4.81,57.14,12.29,83.99,7.05,25.32,7.75,50.37-.94,75.42-8.07,23.25-23.28,44.43-43.32,58.83-45.81,32.91-110.43,20.08-153.58,58.44-23.16,20.59-28.86,52.08-20.36,81.12,9.03,30.85,32.12,54.76,55.52,75.62,3.99,3.55,9.9-2.32,5.89-5.89-20.89-18.63-42.06-39.63-51.64-66.59-9.35-26.31-6.71-56.01,14.05-76.11,39.99-38.7,103.66-26.97,149-55.79,39.23-24.94,63.42-72.8,59-119.25-2.66-28.01-16.3-53.56-19.46-81.43-1.5-13.34.04-26.74,6.82-38.52,5.23-9.09,12.61-16.68,20.09-23.94,15.71-15.26,34.95-30.99,37.43-54.29,1.72-16.09-6.1-30.47-8.18-46.05-1.52-11.43,1.58-27.32,14.47-30.51,5.2-1.29,3-9.33-2.21-8.04Z"/>
      <path class="cls-4" d="M1225.45,978.62c19.46-11.91,40.94-19.92,60.93-30.84,19.88-10.85,36.39-24.92,48.93-43.89,14.11-21.36,23.06-45.86,38.28-66.5,14.38-19.5,35.6-36.88,61.12-35.25,5.36.34,5.33-7.99,0-8.34-21.58-1.37-40.97,9.62-55.76,24.56-16.29,16.44-26.33,37.18-37.01,57.39-11.17,21.14-23.69,41.05-43.63,54.96-19.22,13.41-41.34,21.72-62.09,32.37-84.02,43.09-122.5,135.22-139.55,223.34-11.84,61.16-16.06,123.52-28.86,184.51-1.1,5.23,6.93,7.47,8.04,2.21,20.8-99.11,18.84-205.17,65.16-297.46,19.46-38.76,47.1-74.19,84.45-97.07Z"/>
      <path class="cls-4" d="M546.6,1113.8c6.26-12.79,13.51-25.02,19.47-37.98,5.59-12.16,10.65-24.58,14.95-37.25,8.95-26.41,14.77-54.25,14.71-82.23-.06-30.95-7.83-61.23-23.82-87.81-2.76-4.59-9.97-.4-7.2,4.2,29.5,49.06,26.71,107.28,9.45,160.09-8.62,26.39-21.23,50.37-33.84,74.96-12,23.41-13.39,48.7-9.82,74.34,4.16,29.79,12.48,59.13,7.51,89.41-.87,5.25,7.16,7.5,8.03,2.22,4.47-27.16-.68-53.53-5.34-80.26-4.71-27-6.5-54.34,5.91-79.69Z"/>
      <path class="cls-3" d="M537.22,242.6c-51.51,42.32-96.44,92.38-133.39,147.85-36.93,55.44-65.84,116.29-85.4,179.98-11.03,35.92-18.93,72.71-23.82,109.96-.69,5.3,7.65,5.25,8.34,0,8.56-65.25,27.11-129.23,54.36-189.12,27.3-59.99,63.21-116.11,106.53-165.8,24.24-27.81,50.77-53.57,79.28-76.98,4.15-3.41-1.78-9.27-5.89-5.89Z"/>
      <path class="cls-3" d="M593.54,760.95c-2.65-4.66-9.85-.47-7.2,4.2,17.62,30.97,35.26,62.33,46.91,96.14,11.83,34.34,15.87,69.91,8.66,105.69-7.04,34.95-21.61,67.71-33.23,101.25-11.91,34.39-19.47,70.02-21.86,106.37-2.73,41.39,1.18,83.1,11.34,123.3,1.31,5.2,9.35,3,8.04-2.21-18.48-73.07-14.98-150.07,9.2-221.39,11.52-33.96,26.39-66.96,33.94-102.16,7.38-34.42,5.45-68.96-4.67-102.63-11.57-38.47-31.37-73.83-51.12-108.57Z"/>
      <path class="cls-3" d="M888.44,1062.35c14.64-10.35,30.12-19.68,43.48-31.73,21.63-19.51,37.66-52.31,22.57-80.66-8.88-16.68-26.7-21.8-43.98-25.26-15.88-3.18-41.48-9.21-41.38-29.91.02-5.36-8.3-5.37-8.33,0-.07,15.33,12.03,26.16,25.2,31.85,15.66,6.76,34.07,5.63,48.89,14.49,13.72,8.19,18.29,24.14,16.56,39.3-1.93,16.92-11.22,30.97-23.39,42.44-13.25,12.48-29.02,21.82-43.81,32.28-13.99,9.89-27.16,20.93-39.3,33.02-24.39,24.29-44.77,52.7-60.09,83.52-17.24,34.69-28.02,72.25-31.58,110.82-.5,5.33,7.84,5.3,8.33,0,6.46-69.85,38.14-136.7,87.36-186.57,12.16-12.32,25.35-23.59,39.48-33.59Z"/>
      <path class="cls-3" d="M1244.29,277.2c1.13,7.84,1.17,15.7-.67,23.44-1.79,7.52-4.76,14.7-6.63,22.2-3.17,12.71-2.01,25.41,5.45,36.43,17.42,25.75,49.6,28.46,75.26,41.61,23.34,11.96,41.31,33.5,49.66,58.29,8.73,25.92,5.96,54.12-7.02,78.14-12.99,24.01-34.23,40.81-59.99,49.35-23.23,7.7-47.73,10.31-71.25,16.91-24.9,6.99-49.66,20-60.95,44.59-11.7,25.48-8.01,56.43,10.01,77.98,3.44,4.12,9.31-1.8,5.89-5.89-16.16-19.33-18.89-48.5-7.29-70.78,11.34-21.77,34.16-32.39,56.81-38.48,23.09-6.21,47.04-8.9,69.75-16.55,23.39-7.87,43.3-21.83,57.54-42.13,14.29-20.36,21.83-45.8,19.65-70.67-2.17-24.7-13.04-48.25-30-66.29-8.2-8.73-17.93-16.2-28.6-21.66-14.04-7.19-29.49-10.85-43.9-17.14-11.88-5.18-23.52-12.76-30.11-24.26-7.96-13.89-2.72-27.91,1.67-41.99,5.01-16.11,4.01-30.98.5-47.29-3.35-15.52-6.82-30.68-2.98-46.46,6.63-27.28,28.98-49.72,56.6-55.32,5.25-1.07,3.03-9.1-2.21-8.04-24.18,4.9-44.93,21.82-55.95,43.74-5.34,10.62-8.5,22.36-8.65,34.27-.21,15.68,5.21,30.62,7.43,46Z"/>
      <path class="cls-3" d="M1425.07,931.3c9.06-20.99,25.37-45.21,51.08-44.46,5.37.16,5.36-8.17,0-8.34-20.74-.61-37.64,13.47-48.55,29.96-13.32,20.14-17.65,44.74-30.64,65.09-19.7,30.87-55.96,44.41-88.64,56.84-32.87,12.5-68.67,25.34-91.47,53.66-28.31,35.14-28.74,82.41-32.34,125.23-4.97,59.16-19.52,117.41-43.01,171.95-2.1,4.87,5.08,9.12,7.2,4.21,20.13-46.74,34.01-95.92,40.88-146.36,3.13-23.01,4.14-46.18,6.54-69.25,2.29-22.11,6.18-44.79,16.7-64.63,35.75-67.35,127.92-60.2,178.05-110.83,17.54-17.71,24.57-40.75,34.2-63.08Z"/>
      <path class="cls-4" d="M465.33,1057.6c-.52-4.39-1.41-8.74-2.68-12.98-1.85-6.21-4.49-12.18-7.93-17.69-10.41-16.65-28.25-28.73-47.74-31.18-19.49-2.45-40.2,5.14-52.72,20.28-1.02-19.49.59-41.61-3.74-60.55-3.89-16.99-13.07-34.13-23.97-47.61-12.52-15.47-29.54-27.47-48.22-34.28-18.41-6.71-38.44-8.38-57.4-3.41-26.4,6.94-48.85,25.86-62.77,49.35-13.91,23.49-19.73,51.2-19.53,78.5-14.47-24.89-46.57-38.03-74.34-30.41-19.61,5.37-35.95,19.84-46.42,37.27-13.01,21.66-16.56,72.81-17.86,97.29h466c.69-5.96-.19-40.59-.67-44.58Z"/>
      <path class="cls-4" d="M707.2,167.57c-.46-3.86-1.25-7.7-2.36-11.43-1.62-5.47-3.95-10.72-6.98-15.57-5.72-9.15-13.98-16.73-23.56-21.66-5.77-2.97-12.03-4.99-18.48-5.8-17.16-2.16-35.4,4.52-46.43,17.86-.89-17.16.52-36.65-3.3-53.33-3.42-14.96-11.5-30.05-21.1-41.92-21.89-27.05-59.36-42.02-93.01-33.18-23.25,6.11-43.01,22.77-55.27,43.45-12.25,20.68-17.37,45.08-17.2,69.12-12.74-21.92-41.01-33.48-65.46-26.78-17.26,4.74-31.66,17.47-40.87,32.82-11.46,19.08-14.58,64.12-15.73,85.67h410.34c.61-5.25-.17-35.75-.59-39.26Z"/>
      <path class="cls-4" d="M1930.43,1121.84c-.65-5.43-1.75-10.82-3.32-16.06-2.29-7.69-5.55-15.08-9.82-21.89-12.89-20.62-34.98-35.56-59.11-38.6-24.13-3.04-49.77,6.36-65.27,25.11-1.25-24.13.73-51.53-4.64-74.97-4.81-21.03-16.17-42.25-29.67-58.93-28.43-35.13-75.54-55.77-119.85-48.92-3.66.56-7.3,1.32-10.91,2.27-32.68,8.58-60.46,32.01-77.7,61.08-17.22,29.08-24.43,63.38-24.18,97.18-17.91-30.82-57.66-47.08-92.03-37.65-24.28,6.66-44.51,24.56-57.48,46.14-16.11,26.82-20.5,90.14-22.11,120.44h576.89c.85-7.39-.24-50.25-.83-55.2Z"/>
    </g>
  </g>
</svg>