<?xml version="1.0" encoding="UTF-8"?>
<svg id="Vrstva_2" data-name="Vrstva 2" xmlns="http://www.w3.org/2000/svg" viewBox="0 0 3012.21 3476.28">
  <defs>
    <style>
      .cls-1 {
        fill: #b6bbc7;
      }

      .cls-1, .cls-2, .cls-3, .cls-4, .cls-5, .cls-6, .cls-7, .cls-8, .cls-9, .cls-10, .cls-11, .cls-12 {
        fill-rule: evenodd;
      }

      .cls-2 {
        fill: #fce085;
      }

      .cls-3 {
        fill: #ffd67d;
      }

      .cls-4 {
        fill: #ffc8c7;
      }

      .cls-5 {
        fill: #c9cbd4;
      }

      .cls-6 {
        fill: #ffedef;
      }

      .cls-7 {
        fill: #ffca6e;
      }

      .cls-8 {
        fill: #fff;
      }

      .cls-9 {
        fill: #756661;
      }

      .cls-10 {
        fill: #e9e7fa;
      }

      .cls-11 {
        fill: #fff0c7;
      }

      .cls-12 {
        fill: #fce29c;
      }
    </style>
  </defs>
  <g id="_Ńëîé_1" data-name="Ńëîé 1">
    <g>
      <path class="cls-7" d="M2610.33,2831.87c30.25-3.23,62.08-12.19,81.78-19.87,5.24-2.07,10.94-4.31,16.38-6.58,13.52,14.94,42.86-2.15,31.41-20.52-11.88-18.99-41.16-2.41-35.86,12.78.17.57.4,1.11.6,1.62-4.79,1.62-10.03,3.37-15.56,5.3-29.11,10.29-58.65,18.54-86.09,20.86-9.75-8.19-19.84-16.24-30.08-24.29,25.88-26.39,53.66-50.4,83.71-72.23,33.48,21.57,52.3,36.37,100.4,21.68.6-.17-5.84-28.09-44.42-33.99-13.86-2.13-27.84.88-45.41,4.76,21.37-14.91,43.82-28.8,67.58-41.78,29.57,23.7,102.08,25.65,138.81,21.88,5.67-.62,11.85-1.3,17.74-2.01,8.31,17.8,41.78,9.1,36.57-11.45-5.41-21.32-38.69-13.1-38.38,2.86,0,.6.03,1.13.06,1.7-5.07.26-10.66.6-16.61,1.05-49.46,3.51-98.31,1.87-132.15-17.29,14.74-7.85,29.91-15.36,45.61-22.59,25.65,17.06,38.24,23.44,75.66,13.07.74-.23-15.05-27.16-63.21-18.68,42.21-18.6,80.65-32.29,101.62-40.62,10.09,14.46,40.11,5.61,35.15-13.92-5.41-21.32-38.69-13.1-38.38,2.89,0,1.45.17,2.83.37,4.11-16.24,4.11-40.37,12.81-64.89,22.28,41.07-34.16,25-65.71,24.29-65.25-36.06,23.73-38.81,38.69-39.49,71.18-7.14,2.81-14.14,5.61-20.86,8.31-34.1,13.75-68.49,31.8-98.53,49.97,5.07-36.34,35.29-71.89,70.38-104.49,4.14-3.86,8.05-7.51,11.54-10.91.43.37.91.77,1.36,1.11,13.27,10.49,41.53-7.45,27.04-24.92-13.95-16.84-42.8.94-33.11,18.17-4.39,3.66-8.9,7.54-13.04,11.11-27.52,23.81-74.07,77.87-70.5,113.75-7.03,4.34-13.83,8.67-20.3,12.95-13.72,9.07-38.24,27.24-65.06,49.49,10.09-16.3,18.17-28.97,19.84-43.17,4.51-37.59-25-51.59-25.34-51.17-31.01,41.39-18.71,63.27-3.71,102.1-11.74,9.95-23.7,20.58-35.23,31.44-14.06-10.86-28.57-21.51-43.43-32.06.68-16.21,3.29-33.36,6.83-50.63.96-5.02,1.93-9.78,2.66-14.12.6.06,1.16.08,1.79.08,16.78.11,28.69-28.18,6.8-32.6-21.09-4.28-33.53,24.21-15.62,31.12-1.36,4.99-2.69,10.23-3.83,15.02-2.95,12.08-5.53,28.6-6.32,45.81-20.81-14.54-42.18-28.86-64.37-42.69,34.02-15.51,66.19-45.67,113.27-101.37.6-.77-52.87,19.25-118.23,45.86-15.25,6.15-28.18,15.68-41.47,27.58-9.18-5.33-18.68-10.46-28.06-15.65,2.24-13.49,4.96-26.84,8.14-40.05,79.91-11.62,167.64-30.87,228.73-137.2.48-.82-108.2,19.79-167.58,56.21-22.37,13.69-37.05,34.92-56.15,61.88,1.76-6.41,3.63-12.73,5.61-19.02l.11.09.23-1.16c10.55-33.31,24.21-65.82,41.1-97.99,47.45-2.49,82.01-.74,111.77-13.63,64.6-28.06,93.6-80.45,92.58-80.53-95.02-3.91-149.87,32.88-201.26,88.36,10.69-19.84,22.62-39.54,35.77-59.27,15.17-22.62,30.27-43,42.58-59.39,17.63-16.13,31.66-27.98,38.58-43.68,17.18-39.06,5.73-75.43,5.24-75.03-44.45,34.02-54.26,71.04-53.23,114.52-13.38,16.75-28.2,36.91-41.1,54.79-8.59,11.85-16.72,24.32-24.43,37.08,17.38-36.82,32.71-63.1,33.08-91.62.71-65.2-38.21-111.94-38.72-111.12-47.14,78.29-32.71,140.77,1.62,209.51-11.11,19.11-21.12,38.58-29.59,57,1.02-11.06.82-21.54-1.53-31.92-14.43-63.86-76.22-147.83-76.51-146.95-37.22,112.2,7.57,181.22,54.48,239.61-7.82,23.81-16.27,52.95-22.73,82.2-1.28-.71-2.47-1.42-3.74-2.1-.45-16.07-2.49-30.39-8.33-43.88-26.28-60.66-103.07-133.65-103.21-132.75-7.12,53.69,1.28,95.58,17.91,130.08-494.87-228.3-1197.52-279.41-1736.84,126.4,5.9-25.43,7.51-54.37,3.06-87.96-.17-.94-76.9,72.06-103.21,132.75-6.04,13.86-7.97,28.57-8.36,45.16-1.05.96-2.21,1.9-3.29,2.89-6.49-29.96-15.17-59.92-23.16-84.27,46.91-58.39,91.76-127.42,54.48-239.61-.28-.88-62.08,83.06-76.51,146.92-2.32,10.37-2.55,20.89-1.53,31.95-8.48-18.43-18.48-37.9-29.62-57,34.33-68.74,48.76-131.22,1.67-209.54-.48-.82-39.46,45.95-38.72,111.12.37,28.52,15.7,54.79,33.05,91.64-7.68-12.76-15.85-25.26-24.38-37.11-12.95-17.86-27.78-38.01-41.16-54.82,1.05-43.43-8.79-80.45-53.21-114.46-.51-.4-11.96,35.97,5.24,75.03,6.89,15.7,20.92,27.55,38.55,43.68,12.3,16.38,27.41,36.77,42.58,59.39,13.18,19.7,25.09,39.4,35.77,59.22-51.36-55.42-106.24-92.21-201.26-88.3-1.02.09,27.95,52.47,92.64,80.53,29.71,12.9,64.29,11.14,111.71,13.63,16.89,32.17,30.56,64.69,41.1,97.99l.28,1.16.06-.11c2.01,6.32,3.86,12.64,5.64,19.05-19.13-26.96-33.85-48.19-56.18-61.88-59.39-36.45-168.09-57.03-167.58-56.21,61.09,106.33,148.82,125.52,228.73,137.2,3.69,15.36,6.75,30.9,9.21,46.63-6.38,6.04-12.7,12.27-19.05,18.45-17.06-16.38-32.48-29.28-51.51-36.99-65.45-26.59-118.89-46.6-118.23-45.86,59.61,70.64,95.41,100.23,141.28,110.83-16.24,16.64-32.31,33.76-48.1,51.45-2.55-5.47-5.47-11.03-8.79-16.75-.23-.31-10.18,21.23-18.34,47.79-12.76,15-25.37,30.33-37.79,46.06-1.25-1.5-2.47-2.95-3.66-4.37,13.63-46.15,23.13-98.48-29.28-159.53-.4-.48-16.44,64.69-8.59,107.21,1.28,6.92,3.88,13.44,7.43,20.01-10.09-9.52-21.32-19.33-33.22-28.69,3.15-49.86-4.34-91.53-53.91-129.54-.54-.4-12.33,36.91,5.27,76.93,7.68,17.52,24.04,30.36,44.42,49.29-8.11-6.18-16.38-12.1-24.77-17.57-12.67-8.19-27.1-17.38-39.74-24.83-10.77-27.01-26.5-47.68-62.84-59.02-.4-.14,2.07,24.78,22.9,45.13,8.36,8.19,20.13,12.42,35.23,18.57,11.88,7.37,26.56,16.67,41.84,27.33,13.27,9.3,25.8,18.85,37.59,28.74-46.23-23.02-89.72-33.76-147.26-10.72-.6.31,30.98,26.31,78.26,29.54,21.66,1.5,42.55-7.11,72.43-15.9,18.82,16.19,35.83,33.25,51.02,51.48l.51.68v-.11c.45.57.94,1.16,1.39,1.7-.71.91-1.42,1.84-2.15,2.72-14.66-9.52-27.18-16.87-41.61-19.84-46.18-9.55-118.6,1.39-118.06,1.79,51.53,41.13,99.13,45.41,142.53,40.45-6.01,7.97-11.96,15.99-17.89,24.12-36.65-1.42-63.5-1.9-63.04-1.59,18.17,10.01,33.56,17.86,47.17,23.81-33.87,48.13-66.33,99.33-97.14,153.69,832.79,306.99,2387.11,245.14,2767.21,138.7h0c20.78-63.67,22.22-129.46,7.03-195.28,1.73.06,3.57.17,5.41.26.2,0-2.13-1.39-6.26-3.83-1.73-7.14-3.66-14.29-5.75-21.46,18.91,9.3,42.35,14.54,73.81,10.86.45-.06-36.28-31.63-66.7-42.29-5.9-2.07-12.05-2.95-18.82-3.23-.74-1.87-1.45-3.77-2.18-5.67,13.52-3.74,27.33-6.72,41.64-8.84,13.41,15.48,21.68,27.67,34.72,34.41,28.32,14.66,57.4,10.83,57.15,10.49-23.13-33.31-52.55-42.38-88.64-45.35,10.94-1.56,22.11-2.64,33.59-3.32,13.24-.74,25.51-.91,35.43-.99,11.23,1.79,19.76,3.49,27.98,1.73,20.49-4.34,32.43-17.72,32.09-17.77-25.51-6.21-43.2.06-60.77,11.74-10.37-.14-22.48.09-33.19.31-7.06.17-14.29.68-21.54,1.36,19.62-3.66,34.41-5.33,46.18-12.61,26.93-16.72,35.94-42.18,35.46-42.09-44.36,4.39-66.25,25.54-85.46,55.13-10.74,1.19-21.32,2.86-31.1,4.79,4.82-2.52,9.07-5.36,12.73-8.84,22.42-21.51,40.73-64.4,40.31-64.26-51.14,15.22-69.36,44.42-81.04,73.19-3.52-8.33-7.26-16.61-11.25-24.89,7.94-20.27,12.1-39.54,11.85-39.4-9.5,4.59-17.6,9.55-24.52,14.77-10.32-18.99-21.91-37.87-34.7-56.61,18.45,4.17,39.8,5.5,64.94,2.52.62-.03-48.59-42.32-89.26-56.61-6.24-2.21-12.7-3.37-19.59-3.97-2.32-2.78-4.65-5.56-7.03-8.33,17.57-4.88,35.63-8.65,54.26-11.42,17.91,20.69,29,37.02,46.43,46.03,37.98,19.64,76.82,14.57,76.48,14.06-30.93-44.62-70.3-56.72-118.63-60.75,14.66-2.01,29.62-3.49,44.99-4.39,17.72-.99,34.19-1.25,47.48-1.3,14.97,2.38,26.42,4.62,37.42,2.27,27.41-5.78,43.4-23.7,43-23.75-34.19-8.36-57.91.06-81.41,15.7-13.86-.23-30.13.06-44.42.4-9.5.23-19.22.88-28.89,1.84,26.28-4.96,46.03-7.14,61.82-16.92,36.06-22.42,48.1-56.44,47.48-56.35-59.41,5.84-88.64,34.24-114.41,73.81-14.37,1.62-28.54,3.86-41.61,6.43,6.46-3.4,12.1-7.2,16.98-11.88,30.02-28.83,54.6-86.2,53.97-86-70.64,21.03-94.34,62.02-109.98,101.76-6.46-7.4-13.15-14.74-19.98-22.03,14.83-31.78,22.76-68.03,22.28-67.86-22.93,11.14-39.71,23.78-52.27,37.28-17.32-17.01-35.66-33.7-54.85-50.17h0Z"/>
      <path class="cls-12" d="M978.71,2992.91c16.55,4.71,41.67,61.48-9.24,71.86-74.49,15.17-64.6-92.92,9.24-71.86h0ZM977.18,3139.06c8.28,2.35,20.83,30.73-4.59,35.91-37.28,7.57-32.31-46.43,4.59-35.91h0ZM1039.14,3086.11c8.25,2.35,20.81,30.73-4.65,35.91-37.25,7.6-32.29-46.46,4.65-35.91h0ZM1104.45,3150c19.53,4.71,49.12,61.46-10.91,71.8-87.85,15.17-76.17-92.92,10.91-71.8h0ZM1095.52,3265.97c29.31,6.94,73.73,90.45-16.36,105.68-131.9,22.31-114.38-136.66,16.36-105.68h0ZM1210.41,3194.96c16.55,4.73,41.64,61.48-9.27,71.83-74.47,15.17-64.57-92.92,9.27-71.83h0ZM1208.91,3341.11c8.28,2.32,20.81,30.73-4.65,35.89-37.22,7.63-32.29-46.43,4.65-35.89h0ZM1270.85,3288.16c8.28,2.35,20.81,30.73-4.65,35.92-37.25,7.57-32.32-46.49,4.65-35.92h0ZM1336.16,3352.03c19.53,4.71,49.1,61.46-10.91,71.83-87.85,15.17-76.17-92.89,10.91-71.83h0ZM894.52,3237.17c29.31,6.94,73.7,90.48-16.38,105.7-131.9,22.31-114.38-136.69,16.38-105.7h0ZM1223.2,2987.83c29.28,6.94,73.7,90.48-16.44,105.73-131.84,22.31-114.35-136.72,16.44-105.73h0ZM1577.92,3242.47c19.5,4.73,49.1,61.48-10.89,71.83-87.9,15.17-76.22-92.89,10.89-71.83h0ZM1400.36,3197.14c19.53,4.71,49.12,61.46-10.91,71.83-87.85,15.17-76.17-92.89,10.91-71.83h0ZM1437.52,3330.65c8.28,2.35,20.81,30.73-4.65,35.89-37.22,7.63-32.26-46.43,4.65-35.89h0ZM1817.59,3369.66c8.31,2.35,20.86,30.73-4.59,35.94-37.28,7.57-32.32-46.49,4.59-35.94h0ZM2017.83,3226.14c8.25,2.35,20.83,30.73-4.62,35.89-37.28,7.57-32.31-46.43,4.62-35.89h0ZM863.82,3063.94c29.28,6.94,73.73,90.45-16.38,105.68-131.9,22.31-114.38-136.66,16.38-105.68h0Z"/>
    </g>
    <g>
      <path class="cls-2" d="M2588.92,596.64c14.06-143.43-110.81-322.67-363.03-212.97-109.56,47.65-155.62,216.28-106.75,316.29,108.82,222.83,437.7,224.45,469.79-103.32h0Z"/>
      <path class="cls-10" d="M2326.6,782.08c-58.34-73.62-262.74-145.81-288.79,58.65-10.69,83.85,128.41,130.48,234.94,81.24-43.77,113.13,116.16,189.41,178.44,54.54,61.2,157.8,295.99,41.95,239.73-70.95-4.93-9.89,261.84,86.91,256.14-147.57-2.98-122.6-226.43-157.04-297.92-35.66-29.76-331.17-395.32-120.95-322.53,59.75h0Z"/>
      <path class="cls-10" d="M231.49,624.36c-46.66-58.9-210.16-116.65-231.02,46.89-8.53,67.07,102.73,104.37,187.94,65-35.01,90.48,92.92,151.51,142.72,43.6,48.95,126.23,236.75,33.56,191.76-56.72-3.94-7.91,209.42,69.51,204.86-118.06-2.38-98.05-106.7-114.43-163.87-17.35,23.44-104.26-120.13-140.94-155.51-38.44-68.6-109.3-210.56-8.53-176.88,75.09h0Z"/>
      <path class="cls-10" d="M1263.44,142.67c-29.11,38.52-131.13,80.79-144.14-20.47-5.33-41.53,64.09-69.02,117.27-47.71-21.86-55.13,57.97-98.08,89.04-32.66,30.56-80.62,147.74-29.93,119.65,28.12-2.44,5.07,130.68-51.36,127.84,65.85-1.47,61.26-66.56,75.49-102.25,17.06,14.63,64.18-74.98,92.52-97.03,29.91-42.8,70.81-131.39,13.35-110.38-40.11h0Z"/>
    </g>
    <g>
      <path class="cls-1" d="M592.25,1497.43c0,427.83,2.32,986.14,2.32,1416.13,0,49.58,1748.58,29.06,1749.23.06,11.03-502.78-13.66-1087.11-30.13-1416.61-17.89-40-853.14-771.51-856.66-772.58-199.67,199.64-753.62,672.29-864.77,773.01h0Z"/>
      <path class="cls-5" d="M594.09,2639.02c.14,95.36.26,187.57.26,274.56,0,49.58,1748.58,29.06,1749.26.09,1.96-89.6,2.78-181.76,2.72-274.65H594.09Z"/>
      <path class="cls-12" d="M784.63,866.04c150.83,0,199.16-10.86,222.49,3.83,11.34,19.62,1.5,85.15,3.46,249.56,2.92,244.69-29.62,141.48-215.43,141.48,0-64.74-4.2-298.97-10.52-394.87h0Z"/>
      <path class="cls-5" d="M584.68,1497.43l.03,3.15h1721.59l-.2-3.57c-17.89-40-853.09-771.51-856.66-772.58-199.67,199.64-753.62,672.29-864.77,773.01h0Z"/>
      <path class="cls-9" d="M449.35,1502.39c115.68-3.83,99.55-7.11,149.5-4.68,34.61-25.09,705.46-615.23,854.45-747.24,172.43,152.56,806.94,710.62,840.56,735,49.97-2.44,33.82.85,149.53,4.68-116.73-86.06-962.99-860.26-986.8-857.03-53.77,7.37-863.66,763.43-1007.23,869.27h0Z"/>
      <path class="cls-9" d="M2083.95,1794.53c16.78,77.44,13.49,548.59,3.54,667.42-18.51,17.15-373.38,8.36-434.89,8.36,0-55.08,10.69-601.65,14.8-675.33,90.94,9.01,332.73,5.16,416.55-.45h0Z"/>
      <path class="cls-10" d="M2045.57,1827.95c13.72,69.79,11.03,494.56,2.92,601.68-15.11,15.42-305.12,7.51-355.32,7.51,0-49.63,8.7-542.41,12.08-608.83,74.3,8.14,271.87,4.71,340.33-.37h0Z"/>
      <path class="cls-9" d="M1849.19,2001c-.34-54,0-163.73,0-187.29,3.37,0,37.16,5.3,41.67,7.37-.45,37.53-.34,126.54-.11,179.89,69.87-.06,137.37-.2,173.06-.34,15.05,4.79,12.1,33.87,3.2,41.22-16.64,1.05-335.23.51-390.44.51,0-3.43,9.61-37.16,13.29-41.73,35.29.26,95.87.37,159.34.37h0Z"/>
      <path class="cls-9" d="M1419.43,1018.74c-54.34,2.95-139.07,91.81-146.58,182.47-7.91,95.87,66.44,193.69,195.65,193.69,249.19,0,248.37-392.57-49.07-376.16h0Z"/>
      <path class="cls-11" d="M1427.02,1053.21c-44.36,2.44-113.56,75-119.65,148.93-6.46,78.32,54.23,158.23,159.73,158.23,203.41,0,202.79-320.51-40.08-307.16h0Z"/>
      <path class="cls-9" d="M1638.4,1187.57c-21.63-3.46-94.71-2.78-163.87-1.59-.14-78.86-1.5-150.58-10.35-152.62-13.61-3.2-17.38-16.72-24.97-7.82-3.43,21.34-2.83,92.81-1.62,161.18-38.98.77-73.11,1.53-90.91,1.53-102.59,0-63.27-3.2-72.34,39.06,16.72-4.79,88.89-4.54,163.93-4.42.82,40.42,1.62,76.03,1.62,94.39,0,102.59-3.2,63.24,39.06,72.31-4.88-16.92-4.54-90.68-4.42-166.71,80.16-.11,153.95-1.36,156.05-10.35,3.23-13.58,16.75-17.38,7.82-24.97h0Z"/>
      <path class="cls-9" d="M688.68,2110.34c-8.42,58.17,1.11,958.82,14.26,957.83,20.01-1.53,49.1,3.66,54.09-5.56,8.7-16.1,13.69-951.73,10.46-951.73-12.27,0-66.59-4.39-78.8-.54h0Z"/>
      <path class="cls-9" d="M1440.52,2108.52c-8.45,57.83,1.96,953.06,15.14,952.07,19.98-1.5,44.36,3.66,49.38-5.5,8.65-16.04,19.25-951.36,16.02-951.36-12.27,0-68.32.94-80.53,4.79h0Z"/>
      <path class="cls-4" d="M767.46,2105.49v1.28h677.34l-.06-1.47c-7.03-16.27-335.65-314.28-337.07-314.7-78.52,81.3-296.48,273.83-340.21,314.9h0Z"/>
      <path class="cls-9" d="M688.68,2110.31c48.47-1.5,57.91-.48,78.8.45,14.51-9.72,279.18-240.83,341.55-292,72.2,59.16,317.4,280.12,331.48,289.56,20.92-.91,34.58-4.28,83.06-2.78-48.9-33.36-398.1-363.54-408.05-362.3-22.54,2.86-327.91,263.93-426.84,367.06h0Z"/>
      <path class="cls-3" d="M891.98,2939.24c120.13-.23,361.08,9.52,428.17,5.07,9.33-2.58-14.09-546.77-25.29-627.82-29.71-215.66-252.06-222.49-342.23-70.84-62.9,105.73-73.16,498.02-60.66,693.58h0Z"/>
      <path class="cls-9" d="M1261.05,2627.63c32.83,6.21,33-49.27,6.97-48.3-27.16.99-38.58,42.32-6.97,48.3h0Z"/>
      <path class="cls-9" d="M865.28,2938.51c7.51-3.49,455.39-8.02,472.88-3.57,0,0,8.84,4.76,6.07,42.97-.48,6.21-177.45,2.47-195.51,2.61-93.51.77-187.77-.08-281.42-.08-7.57,0-3.2-41.39-2.01-41.92h0Z"/>
      <path class="cls-3" d="M771.74,838.49c26.67-4.9,236.1-9.84,257.36,2.98,3,1.84-1.73,37.22.37,50.57-17.86,3.49-254.58,12.36-255.46,8.33-4.31-19.39-6.72-34.1-2.27-61.88h0Z"/>
      <path class="cls-6" d="M1071.98,1957.21c7.09-15.93,27.98-1.93,38.98,16.55,4.25-9.01,23.9-35.32,34.36-22.28,16.89,21.03-22.14,66.64-28.09,78.41-5.64,11.08-54.43-52.21-45.24-72.68h0Z"/>
      <path class="cls-11" d="M1973.8,2887c.26.28.62,9.61,5.9,2.18.48-.71-4.25-27.38-6.94-62.93,7.4-4.28,29.71-22.28,46.83-42.41,12.67,8.25,24.07,10.54,37.45-5.53.2-.26-13.35-14.12-33.31.51,2.3-2.89,4.42-5.75,6.38-8.65,6.69-10.01,13.92-22.54,19.22-35.06,4.03.65,8.39-.68,11.03-4.99,3.88-6.41,3.46-20.38,2.64-28.89,3.94,8.65,13.35,27.89,23.87,27.38,7.34-.31,14.26-10.71,7.8-18.37-5.1-6.09-20.01-10.37-28.12-12.16,9.86-3.32,28.2-10.74,30.36-20.38,1.59-7.2-5.84-8.65-9.75-7.06-7.51,3-18.54,17.09-23.75,24.63l-.28-.26c3.46-9.41,9.72-29.51,3.26-37.45-4.65-5.75-10.35-.82-11.59,3.26-2.01,6.75.91,20.78,3.46,30.08-8.25-6.55-20.95-15.17-28.66-11.14-6.55,3.4-8.48,15.73.62,19.96,5.9,2.81,17.35,1.64,25.74.17-7.48,7.37-18.85,20.07-15.48,28.69.57,1.53,1.64,2.89,2.98,3.97-5.58,12.47-15.85,33.62-29.96,49.52-15.34,17.23-33.11,30.7-41.24,36.74-1.02-16.1-1.59-33.7-1.02-51.34,17.92-2.1,29.93-8.16,29.34-29.93,0-.28-20.72-1.93-28.8,18.62,3.03-48.53,19.53-93.91,28.52-117.35,13.69,3.06,24.15,1.56,29.48-14.71.08-.23-14.43-6.72-25.91,5.47,10.46-26.16,20.95-47.88,25.63-59.07-1.45,6.24-2.3,13.07-.85,17.26,2.92,8.53,14.12,7.99,17.77,2.47,4.59-6.89-2.95-20.24-8.14-28.12,7.09,2.92,16.89,6.09,22.65,4.76,8.79-1.98,9.47-13.15,4.37-17.4-6.01-4.99-18.82.11-27.27,4.31,4-7.65,9.24-19.45,8.73-25.77-.28-3.77-4.34-9.21-9.52-5.07-7.17,5.75-5.56,24.58-4.31,33.48l-.28.2c-3.15-7.6-10.12-22.11-16.13-26.16-3.15-2.1-9.98-2.3-9.95,4.31.06,8.9,14.74,18.94,22.79,23.73-7.51,0-21.37.94-27.01,5.3-7.14,5.44-3.09,15.9,3.34,17.63,7.85,2.07,17.86-8.9,23.73-16.36-8.11,15.85-22.59,39.37-34.16,66.59-11.76,27.58-20.35,59.05-25.46,85.41-.96,5.07-1.81,10.29-2.52,15.59-4.14-10.38-11.25-29.31-15-49.78-4.45-24.29-.82-51.73.77-63.55.88-6.86,1.67-12.98,2.27-18.17.91,9.75,3.26,20.61,9.21,24.18,6.29,3.83,10.03-2.75,9.78-7-.4-7.03-7.94-19.25-13.49-27.13,10.01,3.43,24.86,7.14,30.73.77,5.05-5.44,2.66-17.69-7.34-18.57-6.55-.62-16.89,4.34-24.26,8.59,4.51-9.5,10.89-25.31,4.82-32.23-4.85-5.56-17.29-4.51-19.25,5.33-1.47,7.31,3.69,20.32,7.31,28.09-6.63-6.83-22.03-21.71-31.72-17.69-6.83,2.83-9.81,14.94-1.11,19.96,5.98,3.46,18.48,3.12,27.04,2.27-10.72,5.39-27.41,15.08-26.62,24.24.74,8.87,8.84,16.95,20.13,8.16,3.88-3.03,7.43-10.63,10.06-18.14-1.5,5.75-3.03,12.19-4.14,18.85-2.35,14.29-2.83,29.99-2.21,42.94-8.9-17.89-26.59-13.32-26.56-13.07,2.58,17.06,12.76,20.21,26.99,19.45,3.06,32.63,17.91,71.4,20.89,73.5.03.03.17.11.43.14-1.64,16.41-2.27,33.45-2.15,49.83-6.35-26.16-30.44-24.32-30.47-23.98-.57,22.22,11.99,28.09,30.56,30.08.34,18.6,1.53,36.14,3.06,50.51-15.85-29.99-40.85-20.95-40.73-20.55,6.77,27.3,21.77,31.55,41.73,29.2,1.96,15.7,4.25,26.22,5.87,28.12h0ZM2031.68,2562.26c-.03-.06-.11-.06-.14-.06l.26-.31-.11.37Z"/>
      <path class="cls-11" d="M1915.04,2958.29c-.17.31.28,8.7-5.1,2.49,5.56-58.22.48-111.09-16.21-162.96-9.01-.08-16.27,2.92-30.02,2.21-14.37-.71-37.64-18.99-48.22-33.73,35.69,4.14,41.27-12.87,75.54,23.39-6.18-17.83-13.75-35.6-22.76-53.46-12.19-24.21-24.58-44.53-30.59-55.42-.57.23-1.13.43-1.7.6,2.86,7.88,4,17.23,1.42,23.24-4.65,10.91-16.72,12.25-17.26-15.17-.09-3.83.4-6.86,1.25-9.18-.99-.45-2.01-.96-3-1.62-3.43,7.85-9.33,15.76-15.53,18.28-4.31,1.79-8.56,1.81-10.66-.28-6.26-6.29-7.97-16.53,6.24-25.43,3.57-2.21,6.83-3.49,9.64-4.05-.43-.71-.82-1.47-1.22-2.27-.28-.57-.54-1.16-.71-1.76-2.04.2-4.37.17-7.17-.26-27.13-3.88-24.35-15.73-12.93-19.02,6.21-1.79,15.25.45,22.71,4.2,1.33-2.13,3-4.17,4.93-5.98-1.67-1.59-3.4-3.8-5.05-6.75-20.95-37.56,13.49-22.9,17.86-.11,1.56-.28,3.15-.43,4.71-.43-.4-3.37.11-7.63,2.15-12.78,7.94-20.18,29.48-16.41,26.05-.31-1.36,6.46-7.82,13.52-14.74,18.34,1.9,1.56,3.74,3.54,5.5,5.92,13.78-5.07,28.83-1.5,28.8,4.65,0,3.6-3.77,10.8-19.76,10.89-2.41,0-4.45-.2-6.24-.54-.34,1.56-.79,3.15-1.45,4.71,12.33,3.77,20.18,12.08,18.79,18-1.02,4.45-6.92,10.4-21.66-.4-2.58-1.9-4.51-3.8-5.81-5.58-.48.37-.91.68-1.33,1.02,8.42,10.83,21.26,33.65,31.63,52.53.62,1.19,1.28,2.35,1.93,3.57-13.38-46.23,5.56-42.26,23.41-73.13,7,15.31,9.64,42.43,1.67,54.28-8.42,12.56-16.19,16.58-21.71,25.48,10.54,21.12,19.13,44.19,25.06,64.12,7.85,26.33,27.67,121.1,11.54,152.7h0Z"/>
      <path class="cls-8" d="M1889.04,2859.87c65.25,1.13,90.06-3.15,130.08-10.4-.51,17.83,4.31,164.04-1.81,182.1-43.14,0-77.64,1.28-112.54,0-8.33-46.91-10.35-101.34-15.73-171.69h0Z"/>
      <path class="cls-6" d="M1884.73,2836.4c.11.06,141.19,1.16,146.24-.85.71,8.59-1.42,30.33-2.07,50.2-47.23,0-95.61,7.68-142.33.28-.91-15.05-1.84-35.63-1.84-49.63h0Z"/>
      <path class="cls-10" d="M886.12,776.61c-111.83-119.71,27.75-493.14,266.68-416.61,144.34,46.23,22.96,182.49-119.65,201.88-39.2,5.3-135.98,58.22-147.03,214.72h0Z"/>
    </g>
  </g>
</svg>