<?xml version="1.0" encoding="UTF-8"?>
<svg id="Vrstva_2" data-name="Vrstva 2" xmlns="http://www.w3.org/2000/svg" xmlns:xlink="http://www.w3.org/1999/xlink" viewBox="0 0 463.14 344.25">
  <defs>
    <style>
      .cls-1 {
        fill: #9ccae8;
      }

      .cls-2 {
        fill: #733929;
      }

      .cls-3 {
        fill: #e3f5ff;
      }

      .cls-4 {
        fill: #256f9c;
      }

      .cls-5 {
        fill: #538db0;
      }

      .cls-6, .cls-7 {
        fill: #fff;
      }

      .cls-8 {
        fill: #cf5757;
      }

      .cls-9 {
        fill: #2a658a;
      }

      .cls-10 {
        fill: #663b38;
      }

      .cls-11 {
        fill: #e39898;
      }

      .cls-12 {
        fill: none;
      }

      .cls-13 {
        fill: #235473;
      }

      .cls-14 {
        fill: #050e21;
      }

      .cls-15 {
        fill: #e0694e;
      }

      .cls-16 {
        fill: #593a37;
      }

      .cls-17 {
        fill: #755350;
      }

      .cls-18 {
        isolation: isolate;
      }

      .cls-19 {
        fill: #1e4963;
      }

      .cls-20 {
        fill: #522f2d;
      }

      .cls-21 {
        fill: #b87e71;
      }

      .cls-22 {
        fill: #f79f8c;
      }

      .cls-23 {
        fill: #805753;
      }

      .cls-7 {
        opacity: .61;
      }

      .cls-24 {
        fill: #7090a3;
      }

      .cls-25 {
        clip-path: url(#clippath);
      }

      .cls-26 {
        fill: #d44c4c;
      }

      .cls-27 {
        fill: #e8a261;
      }
    </style>
    <clipPath id="clippath">
      <polygon class="cls-12" points="281.21 189.49 210.56 183.97 157.97 199.77 237.95 204.37 281.21 189.49"/>
    </clipPath>
  </defs>
  <g id="bg">
    <path class="cls-3" d="M442.38,257.48v.02c-.23.35-.46.68-.7,1.03-.25.38-.51.77-.77,1.15-2.3,3.38-4.73,6.67-7.28,9.88-.29.37-.58.74-.88,1.1-5.25,6.37-10.85,12.19-16.77,17.5-.26.24-.52.47-.78.69-9.17,8.15-19.07,15.09-29.55,21.02-.27.15-.55.31-.82.46-6.74,3.77-13.71,7.13-20.88,10.11-1.45.61-2.92,1.2-4.39,1.77-2.9,1.14-5.83,2.22-8.79,3.25-2.18.75-4.37,1.48-6.58,2.17-1.12.36-2.24.7-3.36,1.04-.4.12-.8.24-1.21.36-.93.27-1.86.54-2.79.8-.53.15-1.06.3-1.6.45-1.42.4-2.86.79-4.29,1.16-4.77,1.25-9.59,2.37-14.44,3.38-1.33.28-2.66.55-4,.81-.78.16-1.56.31-2.34.46-.43.08-.87.16-1.3.24-2.18.41-4.37.79-6.57,1.15-6.18,1.04-12.41,1.92-18.65,2.66-11.45,1.37-22.96,2.3-34.4,2.93-10.1.56-20.14.89-30.03,1.07-3.8.07-7.56.11-11.24.11-20.29.03-38.87-.92-55.84-2.76-1.25-.13-2.49-.27-3.72-.42-3.46-.4-6.86-.84-10.19-1.32-10.14-1.44-19.65-3.23-28.56-5.32-2.23-.52-4.42-1.06-6.58-1.62-.02-.01-.05-.01-.07-.02-2.23-.58-4.43-1.18-6.58-1.8-1.74-.5-3.45-1.02-5.13-1.54-1.88-.59-3.73-1.19-5.55-1.81-7.26-2.47-14-5.18-20.25-8.11-2.26-1.05-4.45-2.14-6.58-3.25-2.27-1.18-4.46-2.39-6.58-3.63-2.28-1.33-4.47-2.69-6.58-4.09C16.58,289.3,2.6,263.96.39,236.95c-3.72-45.42,18.11-91.32,103.45-112.5,41.82-10.37,53.77-17.67,74.68-56.48,46.84-86.92,182.66-90.06,243.39-11.75,41.2,53.13,57.69,144.26,20.47,201.26Z"/>
  </g>
  <g id="furniture">
    <g>
      <path class="cls-14" d="M441.34,203.88c0,.12-.13.25-.4.36-2.14.96-12.67,1.69-25.34,1.69s-23.21-.73-25.35-1.69c-.26-.12-.4-.24-.4-.36,0-1.14,11.53-2.05,25.75-2.05s25.75.91,25.75,2.05Z"/>
      <path class="cls-19" d="M386.16,151.05c18.56,19.01,32.13,52.05,33.29,78.54.02.41-.6.58-.77.18-8.45-19.63-15.21-39.56-24.11-58.94-2.6-5.7-6.21-13.77-9.05-19.3-.2-.37.32-.79.63-.47h0Z"/>
      <path class="cls-19" d="M454.95,130.08c-7.86,15.94-15.99,31.36-21.29,48.2-5.63,16.75-7.54,34.51-13.14,51.46-.58,1.72-3.24,1.21-3.07-.64,2.03-27.81,4.67-53.91,19.91-78.24,4.83-7.74,10.42-14.93,16.8-21.36.37-.39,1.07.08.8.58h0Z"/>
      <path class="cls-13" d="M420.5,230c-7.33-12.24-4.38-28.73-2.31-42.07,1.14-6.76,2.03-13.47,2.89-20.27.95-6.85,1.51-13.68,2.54-20.55.03-.25.26-.44.52-.4.2.03.35.19.38.38,2.79,17.1,2.2,34.87.1,52.03-.71,9.9-2.23,19.92-1.17,29.76.27,1.67-2.03,2.56-2.94,1.11h0Z"/>
      <path class="cls-13" d="M414.01,230.3c-3.12-10.75-1.52-23.03,4.71-32.45,5.9-9.34,17.16-14.08,24.86-20.51,4.99-4.23,9.23-9.62,11.33-16.24.07-.24.33-.37.56-.3.19.06.32.24.32.44-.08,7.36-3.69,14.35-8.48,19.87-10.41,11.28-20.78,14.08-25.79,29.56-2.26,6.23-3.3,12.76-4.37,19.44-.26,1.66-2.67,1.81-3.13.19h0Z"/>
      <path class="cls-13" d="M394.77,112.41c3.31,20.01,8.81,39.48,14.64,58.84,4.49,14.37,10.52,28.02,15.79,42.11,1.76,4.72,3.47,9.49,4.89,14.47.31,1.07-.31,2.18-1.38,2.49-.78.22-1.59-.05-2.08-.63-3.39-3.99-6.28-8.29-8.91-12.75-13.02-22.42-18.17-48.38-22.13-73.73-1.37-10.17-2.34-20.46-1.92-30.73.01-.31.27-.55.58-.53.27.01.49.22.53.47h0Z"/>
      <path class="cls-13" d="M425.52,103.48c-4.83,20.65-7.47,41.65-7.54,62.78-.2,21.19,3.01,41.75,4.67,62.92.15,1.75-2.38,2.41-3.06.72-11.61-29.68-10.38-65.06-4.23-95.89,2.24-10.53,5.36-20.86,9.47-30.75.08-.19.29-.27.48-.2.17.07.26.25.22.42h0Z"/>
      <path class="cls-9" d="M412.27,214.02c-4.74-10.95,3.03-25.46,12.94-30.85.42-.24.95.2.78.65-.83,2.91-1.81,5.48-2.58,8.06-1.66,5.04-2.49,9.92-3.67,15.01-.66,2.2-3.39,10.85-6.87,8.08-.29-.26-.45-.62-.6-.96h0Z"/>
      <path class="cls-9" d="M415.84,228.79c-5.44-8.33-9.66-17.26-15.69-25.19-6.14-8.53-14.16-17.32-16.78-28.08-.17-.67.72-1.19,1.21-.68,4.01,3.79,8.02,7.02,12.18,10.35,10.65,8.61,23.15,19.31,24.59,33.99.33,3.02.12,6.05-.67,8.99-.37,1.4-1.81,2.23-3.21,1.86-.72-.18-1.24-.65-1.62-1.23h0Z"/>
      <path class="cls-11" d="M441.34,203.88l-2.71,19.54c-1.46,10.56-10.49,18.42-21.15,18.42h-3.77c-10.66,0-19.69-7.86-21.16-18.42l-2.71-19.54c0,.12.14.25.4.36,2.14.96,12.67,1.69,25.35,1.69s23.2-.73,25.34-1.69c.27-.12.4-.24.4-.36Z"/>
      <path class="cls-6" d="M441.46,212.36c-16.85,4.99-34.85,4.99-51.7,0-.83-.25-1.5-1.13-1.5-1.95h0c0-.82.67-1.28,1.5-1.03,16.85,4.99,34.85,4.99,51.7,0,.83-.25,1.5.21,1.5,1.03h0c0,.82-.67,1.71-1.5,1.95Z"/>
      <path class="cls-6" d="M391.65,208.21l-.1,1.67-.17,2.94-.09,1.51-5.64,95.54c-.27.15-.55.31-.82.46l5.79-97.73.13-2.19.04-.75.09-1.52c0-.22.22-.37.42-.36.21.02.37.21.35.43Z"/>
      <path class="cls-6" d="M442.38,257.48v.02c-.23.35-.46.68-.7,1.03l-1.7-44.83-.04-.91-.11-2.96-.07-1.9c0-.21.14-.4.35-.41.21-.02.4.13.43.34l.05,1.41v.34s.12,2.96.12,2.96l1.67,44.91Z"/>
      <path class="cls-6" d="M415.98,210.51v77.65c-.26.24-.52.47-.78.69v-78.34c0-.2.18-.38.39-.38s.39.18.39.38Z"/>
    </g>
    <path class="cls-17" d="M316.5,242.41v92.41c-1.33.28-2.66.55-4,.81v-93.22h4Z"/>
    <rect class="cls-17" x="224.9" y="244.91" width="4" height="99.06"/>
    <path class="cls-17" d="M339.62,221.7v107.33c-.93.27-1.86.54-2.79.8-.53.15-1.06.3-1.6.45v-108.58h4.39Z"/>
    <rect class="cls-17" x="251.28" y="227.41" width="4.39" height="111.22"/>
    <path class="cls-17" d="M326.9,143.62l-50.44-.37c-11.98-.09-21.48,8.51-22.67,20.52l-5.31,53.15,94.14,2.6,5.2-52.43c1.2-12.06-8.89-23.38-20.92-23.47Z"/>
    <g class="cls-18">
      <polygon class="cls-23" points="219.06 238.91 248.62 215.48 342.75 218.23 315.16 243.06 219.06 238.91"/>
      <path class="cls-16" d="M342.75,218.23h0c-.26,4.83-2.38,9.38-5.9,12.7l-18.82,17.73c-1.56,1.47-3.64,2.24-5.78,2.15l-84.87-3.78c-4.43-.2-8.01-3.69-8.31-8.12h0l96.1,4.15,27.59-24.83Z"/>
    </g>
  </g>
  <g id="grandma">
    <path class="cls-27" d="M193.95,166.25l15.38,16.72c11.63,9.89,22.6,18.03,35.03,6.85,1.59-1.43,3.76-5.87,4-9.07.72-9.64-5.88-18.15-14.01-23.36l-19.13-14.95c-4.7-3.67-11.45-3.01-15.36,1.5l-6.62,7.66c-3.71,4.29-3.4,10.73.7,14.65Z"/>
    <path class="cls-5" d="M219.75,254.39c-2.58,23.23-8.55,66.97-11.78,89.86-20.29.03-38.87-.92-55.84-2.76-1.25-.13-2.49-.27-3.72-.42,13.1-36.08,40.91-115.26,40.91-115.26,7.97-.68,15.75,2.24,23.39,2.74,2.28.15,4.53.36,6.75.62.27.02,1.23,10.19,1.5,10.22.16,1.48-.33,7.03-1.21,15Z"/>
    <path class="cls-5" d="M258.38,237.45l-63.91,17.02-5.46-20.48c-1.91-7.16,2.19-14.89,9.85-18.57l78.01-37.55,6.19,23.2c4.1,15.37-6.95,31.66-24.69,36.39Z"/>
    <path class="cls-5" d="M294.46,238.03l-11.97,3.19-37.72,10.04-17.91,4.77-5.46-20.48c-1.9-7.16,2.53-14.98,11.03-19.17l82.76-38.81,5.81,23.57c4.11,15.37-7.78,31.89-26.54,36.89Z"/>
    <path class="cls-27" d="M230.47,193.78c-9.13-1.6-17.02-11.71-14.9-23.79,4.1-23.35,7.66-42.61,16.86-63.44,2.06-4.65,13.97-7.59,13.97-7.59l-1.48,85.55c-.88,7.68-8.34,10.35-14.45,9.28Z"/>
    <path class="cls-26" d="M319.67,110.1c-7.8,26.65-1.99,58.16-4.1,89.72-13.92,6.45-26.26-2.95-44.39-3.65-11.96-.46-18.92-.99-31.29,1.84-4.77-14.2.35-26.67,3.27-41.22.05-.22.1-.45.14-.68.49-2.54.91-5.15,1.19-7.84.04-.3.07-.61.1-.91.94-9.88-.02-20.92-5.95-34.09-2.11-4.69-4.35-8.75-4.35-8.75,3.34-5.42,16.54-10.07,22.45-11.45.06-.02.12-.04.18-.05.03-.01.05-.01.08-.02,12.79-2.93,26.08-3.06,38.91-.36.17.03.34.06.51.1.15.03.29.06.44.09,6.06,1.33,13.31,3.68,18.92,6.54,5.66,2.89,4.37,9.1,3.89,10.73Z"/>
    <rect class="cls-2" x="187.62" y="141.16" width="18.97" height="10.19" transform="translate(-38.72 214.29) rotate(-52.67)"/>
    <path class="cls-22" d="M194.62,129.42c-.11-1.07-.26-2.13-.49-3.17-.2-1.05-.51-2.08-.82-3.11-.32-1.02-.69-2.03-1.15-3.01-.47-.99-.94-1.9-1.65-2.9h0c-.3-.62-.93-.97-1.58-.93h-.12c-1.82.11-3.63.29-5.44.5-1.81.2-3.62.44-5.41.83-.75.16-2.1.52-1.83,1.05.3.58,1.27,1.28,2.2,1.4,1.82.24,3.52.31,5.34.19,1.82-.11,3.63-.25,5.44-.46l-1.7-.92h0c.2.8.46,1.78.66,2.68.21.92.42,1.84.61,2.77.17.93.32,1.86.45,2.8.13.93.23,1.87.34,2.81v.06c.18,1.41,1.46,2.42,2.88,2.25,1.4-.17,2.39-1.43,2.25-2.82Z"/>
    <path class="cls-22" d="M193.05,132.16c-.26-.88-.53-1.75-.84-2.61-.32-.86-.65-1.72-1.05-2.57-.39-.85-.81-1.68-1.31-2.49-.25-.41-.51-.81-.8-1.21-.14-.2-.3-.4-.46-.6l-.26-.3c-.1-.11-.16-.18-.34-.36h0c-.33-.34-.77-.51-1.21-.51h-.02s-8.92.18-8.92.18h-.01c-.92.02-1.64.78-1.62,1.69,0,.21.05.41.12.6.25.6.49,1.13.75,1.68.26.55.54,1.09.85,1.63.31.54.63,1.07,1,1.61.38.53.79,1.06,1.35,1.59.67.63,1.37,1.02,2.15.53,1.21-.76-.48-3.63-.77-4.03-.29-.41-.56-.86-.83-1.33-.26-.46-.51-.95-.75-1.44-.23-.49-.47-1.01-.66-1.47l-1.51,2.29,8.92-.18-1.23-.5h0s.04.08.08.13l.13.21c.09.15.17.31.26.48.17.33.33.68.47,1.03.3.71.55,1.47.76,2.23.22.76.4,1.55.56,2.34.15.79.28,1.6.39,2.4h0c.18,1.36,1.42,2.3,2.77,2.12,1.35-.18,2.29-1.42,2.11-2.77-.02-.12-.05-.25-.08-.36Z"/>
    <path class="cls-22" d="M191.06,136.41c-.23-.82-.47-1.63-.75-2.45-.29-.81-.62-1.62-1.01-2.43-.39-.8-.86-1.6-1.45-2.36-.28-.38-.63-.76-1.01-1.12-.2-.18-.41-.36-.65-.53-.11-.08-.26-.17-.39-.25-.18-.1-.24-.14-.62-.29-.15-.06-.3-.09-.46-.1h-.04s-7.1-.45-7.1-.45h0c-.96-.06-1.79.67-1.85,1.63-.01.21.01.42.07.61h0c.13.65,4.06,7.82,4.06,7.82,1.6-.12,1.56-1.88,1.45-2.32l-.02-.06c-.27-1.11-.62-2.17-.98-3.24-.18-.54-.06-.23-.26-.76-.19-.53.22.49,0,0h0l3.91.17c-.2-.07-.09-.02-.11-.01l.08.09c.06.07.14.17.21.27.15.22.3.45.43.73.27.54.51,1.15.69,1.81.19.65.33,1.33.45,2.03.11.7.19,1.42.26,2.13v.03c.14,1.42,1.4,2.47,2.83,2.33,1.42-.14,2.47-1.4,2.33-2.82-.01-.15-.04-.31-.08-.44Z"/>
    <path class="cls-22" d="M190.19,139.57c-.4-1.43-.85-2.86-1.43-4.29-.3-.72-.61-1.44-1.04-2.17-.21-.37-.45-.74-.75-1.13-.15-.19-.32-.39-.53-.6-.13-.11-.22-.21-.39-.33-.08-.06-.15-.11-.27-.18-.06-.04-.09-.06-.19-.1-.12-.05-.09-.06-.4-.16h0l-.08-.02c-.16-.05-.32-.06-.48-.05l-7.78.73-.31.03c-.63.06-1.09.62-1.03,1.24.01.14.05.27.11.39h0c.16.48.31.91.48,1.36.17.44.34.88.53,1.32.38.88.79,1.75,1.3,2.6.28.47.39.69.89.48,1.43-.61.24-3.01,0-3.85-.12-.42-.23-.85-.34-1.28-.1-.43-.2-.87-.28-1.28h0l-1.23,1.66,7.81.11-.56-.07h0c-.27-.09-.2-.07-.28-.1-.06-.03-.05-.02-.07-.03-.04-.03-.05-.03-.06-.03-.03-.02,0,.02,0,.03l.11.23c.09.2.19.45.28.72.18.54.32,1.16.44,1.78.24,1.26.38,2.59.49,3.92.11,1.43,1.36,2.49,2.79,2.38,1.43-.11,2.49-1.36,2.38-2.79-.01-.17-.05-.34-.09-.5Z"/>
    <path class="cls-14" d="M187.17,150.56c.99.77,3.26-.39,5.69-2.7.85-.81,1.72-1.77,2.56-2.83,1.8-2.29,3.08-4.61,3.62-6.38.43-1.41.4-2.47-.18-2.93-.5-.39-1.34-.29-2.38.23-1.68.84-3.87,2.76-5.87,5.31-.93,1.18-1.72,2.36-2.34,3.48-1.54,2.76-2.05,5.09-1.11,5.84Z"/>
    <path class="cls-22" d="M186.04,143.2l2.23,1.52,4.59,3.14c.85-.81,1.72-1.77,2.56-2.83,1.8-2.29,3.08-4.61,3.62-6.38l-.29-.23c-.9-.7-1.66-1.53-2.27-2.48-.72-1.15-1.21-2.46-1.4-3.83-.21-1.52-.45-3.66-1.03-6.26-.5-2.23-8.33,2.9-8.33,2.9l-1.5,10.32c-.24,1.61.47,3.22,1.82,4.15Z"/>
    <path class="cls-22" d="M179.32,123.71c2.93.26,6.04,0,8.83,1.41,3.39,1.48,3.37,4.76,2.79,7.75-.13,1.27-.09,1.86.61,2.78,2.04,2.84-2.06,5.95-4.24,3.2-.72-.96-1.27-2.22-1.44-3.49-.3-1.99.43-4.02.79-5.57.04-.36.13-.47.02-.66-1.35-1.42-3.95-1.96-5.86-2.8-.92-.37-2.14-1.1-2.14-2.31.02-.32.37-.44.63-.3h0Z"/>
    <path class="cls-8" d="M186.9,139.07c-.14,0-.28-.07-.35-.2-1.64-2.9-1.3-5.11-1.03-6.89.15-.95.27-1.77.02-2.44-.64-1.65-3.99-2.58-5.4-2.9-1.75-.4-2.01-2.87-2.02-2.97-.01-.12.03-.23.11-.32.08-.09.19-.14.31-.12.22,0,5.35.25,8.76,1.04,3.63.84,4.24,4.13,4.27,4.27.04.22-.11.43-.33.46-.22.04-.43-.11-.47-.33-.02-.12-.55-2.91-3.65-3.62-2.73-.63-6.72-.91-8.11-.99.14.61.5,1.61,1.31,1.8,1.91.44,5.22,1.46,5.97,3.4.33.87.19,1.79.03,2.85-.26,1.65-.58,3.71.93,6.37.11.19.04.44-.15.55-.06.04-.13.05-.2.05Z"/>
    <path class="cls-8" d="M181.28,132.24c-.14,0-.28-.07-.35-.2-.97-1.68-4.13-6.68-4.17-6.73-.12-.19-.06-.44.12-.56.19-.12.44-.06.56.12.03.05,2.86,4.52,4,6.44.43-.24,1.14-.81.9-1.95-.36-1.75-1.04-2.48-1.05-2.48-.15-.16-.15-.41,0-.57.16-.15.41-.15.57,0,.03.03.85.87,1.27,2.89.37,1.79-.97,2.75-1.73,3.01-.04.01-.09.02-.13.02Z"/>
    <path class="cls-8" d="M180.17,137.14c-.14,0-.28-.07-.35-.2-.98-1.7-3.82-6.85-3.85-6.9-.11-.19-.04-.44.16-.55.19-.11.44-.04.55.16.03.05,2.56,4.63,3.66,6.57.43-.24,1.14-.81.9-1.95-.38-1.82-.78-2.6-.78-2.6-.1-.2-.03-.44.17-.54.2-.1.44-.03.54.16.02.03.46.87.86,2.82.37,1.79-.97,2.75-1.73,3.01-.04.01-.09.02-.13.02Z"/>
    <path class="cls-6" d="M287.98,47.11c-2.01,2.42-5.16,3.13-7.03,1.57-1.87-1.55-1.76-4.77.25-7.2,2.01-2.42,5.16-3.13,7.03-1.57s1.76,4.77-.25,7.2Z"/>
    <path class="cls-6" d="M291.25,58.65c-4.51,3.45-10.12,3.69-12.53.54-2.41-3.15-.71-8.5,3.8-11.95,4.51-3.45,10.12-3.69,12.53-.54s.71,8.5-3.8,11.95Z"/>
    <path class="cls-6" d="M295.91,92.64l-20.64,35.92-18.53-35.49c.06-.02.12-.04.18-.05.03-.01.05-.01.08-.02,12.79-2.93,26.08-3.06,38.91-.36Z"/>
    <path class="cls-6" d="M293.84,67.98c-4.51,3.45-9.66,4.29-11.5,1.89-1.84-2.41-3.43-5.51,1.08-8.96s13.41-5.93,15.25-3.53c1.84,2.41-.32,7.15-4.83,10.6Z"/>
    <path class="cls-6" d="M300.51,77.32c-.85,5.25-6.98,8.63-13.7,7.55-6.72-1.08-11.48-6.22-10.63-11.47.85-5.25-.4-11.03,6.31-9.95,6.72,1.08,18.86,8.62,18.01,13.87Z"/>
    <path class="cls-6" d="M270.6,55.81c1.23,3.02-1.95,7.18-7.11,9.28-5.16,2.1-10.34,1.36-11.58-1.67-1.23-3.02,1.95-7.18,7.11-9.28s10.34-1.36,11.58,1.67Z"/>
    <path class="cls-22" d="M285.86,96.54c-.73,5.22-6.95,8.35-13.25,8.35s-8.83-4.11-9.53-8.13l-.02-.39s0,0,0-.01l-.02-.62-.35-9.08-.41-10.61-.03-.83,11.88-1.26,10.83-1.14.9,23.72Z"/>
    <path class="cls-14" d="M280.49,76.34c.03.37-2.04,8.12-11.2,9.73-2.59.46-4.79.62-6.6.59l-.41-10.61-.03-.83,11.88-1.26,6.36,2.38Z"/>
    <path class="cls-22" d="M272.5,83.33l-2.66.17c-6.63.42-12.34-4.39-12.74-10.74l-.94-14.79-.37-5.75-.18-2.82,27.9-1.78,1.41,22.19c.44,7-5.12,13.06-12.42,13.52Z"/>
    <path class="cls-6" d="M276.35,48.55c0,.31-2.25,1.71,4.57,7.87,4.02,3.63,2.71,9.64,2.71,9.64l3.33-10.3-2.24-8.14-3.34-1.94-2.3-.62-2.73,3.49Z"/>
    <path class="cls-14" d="M265.45,55.26s-4.17,1.89-9.29,2.71l-.37-5.75,6.12.07,3.54,2.97Z"/>
    <path class="cls-14" d="M278.94,61.42c-2.35-.62-4.39-2.13-6.65-2.91-.93-.33-.76-1.78.2-1.91,2.96-.33,5.88.94,7.63,3.26.55.78-.29,1.86-1.18,1.56h0Z"/>
    <path class="cls-14" d="M253.86,59.28c1.94-2.17,4.95-3.2,7.88-2.62.53.14.85.68.72,1.21-.09.35-.35.61-.67.71-1.13.34-2.23.74-3.37,1.21-1.16.48-2.33,1-3.61,1.16-.89.14-1.51-.98-.94-1.66h0Z"/>
    <path class="cls-22" d="M282.84,67.25c-.74,3.22.26,6.2,2.24,6.65,1.98.46,4.18-1.78,4.92-5s-.26-6.2-2.24-6.65c-1.98-.46-4.18,1.78-4.92,5Z"/>
    <path class="cls-14" d="M277.44,68.52c-.13,0-.27-.07-.34-.19-.12-.19-.06-.44.13-.56l7.86-4.98c.19-.12.44-.06.56.13.12.19.06.44-.13.56l-7.86,4.98c-.07.04-.14.06-.22.06Z"/>
    <path class="cls-6" d="M261.18,39.9c-10.21,2.72-17.39,8.4-14.18,13.27,2.41,3.66,11.09,4.23,21.32,1.95,10.24-2.24,15.8-8.77,15.27-13.51-.51-4.66-12.2-4.38-22.42-1.7Z"/>
    <path class="cls-27" d="M335.06,197.77c-6.2.38-14.25-2.21-15.98-9.75l-7.42-42.97v-.02l-6.08-35.22s9.86-11.21,12.95-7.17c.81,1.06,1.69,2.95,2.53,4.45,8.73,15.55,19.27,44.33,25.43,65.3,3.46,11.77.6,24.63-11.43,25.38Z"/>
    <path class="cls-14" d="M272,64.87c-.14.95.31,1.81,1.01,1.91.7.1,1.38-.59,1.52-1.54.14-.95-.31-1.81-1.01-1.91s-1.38.59-1.52,1.54Z"/>
    <path class="cls-14" d="M259.37,63.79c-.14.95.31,1.81,1.01,1.91s1.38-.59,1.52-1.54c.14-.95-.31-1.81-1.01-1.91s-1.38.59-1.52,1.54Z"/>
    <path class="cls-8" d="M268.07,70.65s-.05,0-.08,0c-.62-.12-2.1-.45-2.47-1.05-.23-.37-.06-1.17.99-4.48.29-.9.64-2.02.67-2.3-.03-.16.04-.33.19-.42.19-.11.44-.05.56.14.15.24.12.42-.64,2.83-.41,1.3-1.1,3.48-1.04,3.87.09.11,1.01.44,1.9.61.22.04.37.25.32.48-.04.2-.21.33-.4.33Z"/>
    <g>
      <path class="cls-7" d="M270.45,67.81c-.05,1.15,1.47,2.16,3.41,2.24,1.93.08,3.54-.78,3.59-1.94.05-1.15-1.47-2.16-3.41-2.24-1.93-.08-3.54.78-3.59,1.94Z"/>
      <path class="cls-14" d="M274.12,70.47c-.09,0-.19,0-.28,0-2.19-.1-3.86-1.27-3.8-2.67.03-.71.49-1.34,1.3-1.77.74-.4,1.7-.6,2.71-.55,2.19.1,3.86,1.27,3.8,2.67-.06,1.34-1.67,2.33-3.73,2.33ZM273.78,66.28c-.77,0-1.49.16-2.04.46-.32.17-.85.54-.87,1.09-.04.91,1.34,1.74,3.02,1.82,1.68.08,3.12-.64,3.16-1.55.04-.91-1.34-1.74-3.02-1.82-.08,0-.16,0-.24,0Z"/>
    </g>
    <g>
      <path class="cls-7" d="M256.07,65.6c-.15,1.14,1.28,2.28,3.19,2.54,1.92.26,3.59-.47,3.75-1.61.15-1.14-1.28-2.28-3.19-2.54-1.92-.26-3.59.47-3.75,1.61Z"/>
      <path class="cls-14" d="M260.03,68.59c-.27,0-.55-.02-.82-.06-1-.13-1.91-.49-2.57-1.02-.72-.57-1.06-1.27-.97-1.97.09-.7.61-1.29,1.45-1.65.78-.33,1.75-.44,2.75-.31,2.17.29,3.73,1.6,3.54,2.99-.09.7-.61,1.29-1.46,1.65-.56.24-1.22.36-1.93.36ZM259.04,64.34c-.59,0-1.14.1-1.6.3-.33.14-.9.46-.97,1.01h0c-.07.55.39,1,.67,1.23.55.43,1.32.74,2.17.85.85.11,1.68.02,2.32-.25.33-.14.9-.46.97-1.01.12-.9-1.18-1.86-2.84-2.08-.24-.03-.48-.05-.72-.05Z"/>
    </g>
    <rect class="cls-14" x="266.33" y="63.58" width=".81" height="7.48" transform="translate(164.75 322.82) rotate(-82.4)"/>
    <path class="cls-8" d="M274.5,72.84c-.12,0-.24-.05-.32-.16-.97-1.24-3.51-1.8-3.53-1.8-.22-.05-.36-.26-.31-.48.05-.22.26-.36.48-.31.12.02,2.85.62,4.01,2.1.14.18.11.43-.07.57-.07.06-.16.09-.25.09Z"/>
    <path class="cls-8" d="M262.49,73.51s-.06,0-.1-.01c-.22-.05-.35-.27-.3-.49.26-1.06,2.03-2.93,2.98-2.93.23,0,.41.18.41.41s-.18.41-.41.41c-.44,0-1.97,1.43-2.19,2.31-.05.19-.21.31-.4.31Z"/>
    <path class="cls-8" d="M276.18,63.72c-.11,0-.22-.04-.3-.13-.02-.02-1.76-1.88-4.44-1.43-.23.03-.43-.11-.47-.34-.04-.22.11-.43.33-.47,3.12-.52,5.16,1.67,5.18,1.69.15.17.14.42-.03.58-.08.07-.18.11-.27.11Z"/>
    <path class="cls-8" d="M258.33,62.16c-.1,0-.19-.03-.27-.1-.17-.15-.19-.41-.04-.58,1.66-1.89,5.12-.75,5.26-.7.21.07.33.3.25.52-.07.21-.3.33-.52.26-.03-.01-3.08-1.02-4.39.46-.08.09-.19.14-.31.14Z"/>
    <path class="cls-8" d="M287.54,71.12c-.07,0-.15-.02-.22-.06-.19-.12-.25-.37-.13-.56.02-.03,1.67-2.69.93-4.78-.14-.38-.35-.62-.65-.72-.73-.25-1.84.32-2.21.56-.19.12-.44.07-.56-.12-.12-.19-.07-.44.12-.56.07-.04,1.67-1.07,2.92-.65.54.18.93.6,1.15,1.22.87,2.47-.93,5.37-1.01,5.49-.08.12-.21.19-.34.19Z"/>
    <path class="cls-24" d="M279.85,42.93c-.07,0-.14-.01-.21-.04-.25-.11-.36-.41-.25-.66.02-.05,2.23-4.77,7.6-3.48.27.06.43.33.37.6-.07.27-.33.43-.6.37-4.56-1.1-6.38,2.76-6.46,2.92-.08.18-.27.29-.46.29Z"/>
    <path class="cls-24" d="M295.64,47.72c-.15,0-.3-.07-.4-.2-3.2-4.28-8.83-2.08-9.07-1.98-.26.1-.55-.02-.65-.28-.1-.26.02-.55.28-.65.06-.03,6.58-2.59,10.25,2.31.16.22.12.53-.1.7-.09.07-.19.1-.3.1Z"/>
    <path class="cls-24" d="M298.67,57.88c-.12,0-.24-.04-.34-.13-2.53-2.3-7.25-.04-7.3-.01-.25.12-.55.02-.67-.23-.12-.25-.02-.55.23-.67.22-.11,5.38-2.58,8.41.17.21.19.22.5.03.71-.1.11-.23.16-.37.16Z"/>
    <path class="cls-24" d="M251.14,56.25s-.06,0-.09,0c-.05,0-5.53-1.06-5.29-6.02.26-5.24,9.88-9.88,16.43-11.08.28-.05.53.13.58.4.05.27-.13.53-.4.58-7.05,1.3-15.41,6.01-15.61,10.15-.2,4.08,4.28,4.96,4.47,4.99.27.05.45.31.4.58-.04.24-.25.41-.49.41Z"/>
    <path class="cls-24" d="M254.27,54.87c-.07,0-.14-.01-.2-.04-2.22-.99-3.35-2.61-3.36-4.82-.03-9.53,20.26-12.31,21.12-12.42.13-.02.27.02.38.1.11.08.18.21.19.34.03.27-.17.51-.44.55-.2.03-20.28,2.77-20.25,11.43,0,1.8.91,3.08,2.77,3.91.25.11.37.41.25.66-.08.19-.27.3-.46.3Z"/>
    <path class="cls-24" d="M300.55,76.57c-.22,0-.41-.14-.48-.36-1.41-4.74-8.85-8.81-9.69-9.26l.45-.9-.24.44.26-.43c1.44.77,8.69,4.84,10.18,9.86.08.26-.07.54-.34.62-.05.01-.1.02-.14.02Z"/>
    <path class="cls-24" d="M290.58,85.57c-.23,0-.44-.16-.49-.39-.06-.27.11-.54.38-.6,1-.22,1.66-.7,2.04-1.44,1-1.99-.42-5.21-.43-5.24-.11-.25,0-.55.25-.66.25-.11.55,0,.66.25.07.15,1.62,3.68.41,6.1-.51,1.02-1.43,1.68-2.72,1.97-.04,0-.07.01-.11.01Z"/>
    <path class="cls-24" d="M268.88,55.48c-.23,0-.44-.16-.49-.39-.06-.27.11-.54.38-.59,9.24-2.02,12.14-6.91,12.17-6.96.14-.24.44-.32.68-.19.24.14.32.44.19.68-.12.22-3.11,5.32-12.82,7.44-.04,0-.07.01-.11.01Z"/>
    <path class="cls-27" d="M309.11,199.78l-26.55-1.55c-9.79-.68-14.67-6.42-14.38-10.72l.72-10.62c.29-4.3,4.02-7.63,8.52-7.61l54.61-6.79,7.98,12.87c.12,2.09,7.24,9.75,6.93,11.83-2.33,15.73-26.69,14.06-37.84,12.6Z"/>
    <path class="cls-2" d="M280.75,192.48c-1.38.93-2.96,1.39-4.59,1.42-.1.01-.2,0-.29,0h-.35s-8.31-.51-8.31-.51l-.6-4.81h0s-1.38-10.74-1.38-10.74l-1.24-5.32,8.68.05c3.59-.18,7.42,1.74,9.82,5.33,3.43,5.1,2.65,11.62-1.73,14.57Z"/>
    <path class="cls-14" d="M274.76,188.91c-.02.06-.05.12-.08.17-.56,1.27-1.41,2.36-2.57,3.13-.24.16-.5.31-.75.44-2.06,1.03-4.5,1.01-6.84.08-.4-.15-.81-.34-1.19-.55-1.32-.7-2.22-1.88-3.19-3.18-.17-.23-.35-.46-.53-.7h0c-.18-.24-.34-.46-.5-.7-.05-.07-.09-.14-.13-.2-.93-1.44-1.55-2.95-1.87-4.45-.11-.52-.19-1.04-.23-1.55-.03-.3-.05-.6-.05-.9,0-.59.03-1.16.13-1.71.03-.24-.4-.21-.33-.44.19-.8.48-1.54.88-2.22.38-.68.86-1.29,1.44-1.8.24-.21.49-.41.76-.59,2.48-1.66,5.72-1.56,8.65-.04.48.25.96.55,1.43.88,1.12.79,2.14,1.79,3.03,2.98h0c.12.18.24.35.36.53,2.39,3.56,2.88,7.73,1.58,10.82Z"/>
    <path class="cls-26" d="M311.66,145.03l-9.17-36.33s12.77-10.63,16.11-6.06c0,0-3.94-.47-5.87,14.32-2.46,18.82-1.06,27.53-1.07,28.07Z"/>
    <path class="cls-14" d="M260.62,151.48s-5.43,4.49-17.46,5.31c.05-.22.1-.45.14-.68.49-2.54.91-5.15,1.19-7.84l16.13,3.21Z"/>
    <path class="cls-26" d="M268.88,143.71c-2.43,8.15-9.07,11.4-20.56,9.82-6.42-.88-9.93-8.19-6.33-15.89,3.64-7.79,8.42-15.63,15.12-13.63,6.7,1.99,14.2,11.55,11.78,19.7Z"/>
    <path class="cls-26" d="M307.23,150c-2.43,8.15-15.05,6.63-20.19,4.53-5.45-2.23-7.04-8.1-3.44-15.81,3.64-7.79,8.42-15.63,15.12-13.63,6.7,1.99,10.94,16.76,8.51,24.92Z"/>
    <path class="cls-14" d="M282.66,241.13l-37.72,10.04-2.15-1.92,11.51-11.74c.63.16,13.03,5.53,28.36,3.62Z"/>
    <path class="cls-5" d="M310.16,336.09c-8.76,1.66-17.62,2.99-26.52,4.05-11.45,1.37-22.96,2.3-34.4,2.93-2.3-9.35-6.23-25.53-7.66-31.27-4.47-17.93-8.92-35.19-13.21-51.3-1.47-5.51-2.92-10.89-4.35-16.12l1.11-.87c.56-.44,1.12-.87,1.68-1.3,4.81-3.66,9.74-7.01,14.77-9.99,2.18-1.3,4.37-2.53,6.58-3.68.65-.34,1.29-.67,1.94-.99,1.65,1.98,3.26,3.99,4.84,6.04,21.73,28.03,41.87,70.27,55.22,102.5Z"/>
    <path class="cls-14" d="M298.01,157.33c-15.53,0-16.34-7.51-16.36-7.84-.02-.28.18-.52.46-.54.25-.03.52.18.54.46,0,.07.83,6.92,15.37,6.92.07,0,.12-.01.21,0,.28,0,.5.22.5.5,0,.28-.22.5-.5.5-.07,0-.14,0-.22,0Z"/>
    <path class="cls-14" d="M328.42,174.2c-.28,0-.5-.22-.5-.5,0-1.94-3.11-6.38-12.7-7.73-7.27-1.02-18.86,1.45-18.97,1.47-.28.06-.54-.11-.59-.38-.06-.27.11-.54.38-.59.48-.1,11.88-2.53,19.32-1.48,9.88,1.38,13.56,6.08,13.56,8.72,0,.28-.22.5-.5.5Z"/>
    <path class="cls-14" d="M311.67,148.58h0c-.28,0-.5-.23-.5-.5.12-12.73,7.77-19.32,7.84-19.37.23-.15.54-.09.69.14.15.23.09.54-.14.69-.08.06-7.29,6.51-7.4,18.55,0,.27-.23.5-.5.5Z"/>
    <path class="cls-14" d="M347.22,180.64c-.26,0-.48-.21-.5-.47-.65-11.32-12.69-22.85-12.81-22.97-.2-.19-.21-.51-.02-.71.19-.2.51-.21.71-.02.51.48,12.46,11.92,13.12,23.64.02.28-.2.51-.47.53,0,0-.02,0-.03,0Z"/>
    <path class="cls-14" d="M294.97,186.36s-.05,0-.07,0c-.27-.04-.46-.29-.43-.56.04-.33,1.02-8.21-6.86-13.32-6.86-4.44-11.85-2.85-13.67-1.95l-.13.06c-.25.11-.55,0-.66-.26-.11-.25,0-.55.26-.66l.09-.04c1.98-.97,7.36-2.7,14.65,2.01,8.43,5.46,7.32,14.21,7.31,14.29-.04.25-.25.43-.49.43Z"/>
    <path class="cls-14" d="M243.89,135.09c-.22,0-.43-.15-.48-.38-1.22-4.72-3.98-6.36-6-7.56-.58-.34-1.08-.64-1.48-.97-.21-.17-.25-.49-.07-.7.17-.21.49-.25.7-.07.35.28.82.56,1.37.89,2.05,1.21,5.14,3.05,6.46,8.17.07.27-.09.54-.36.61-.04.01-.08.02-.12.02Z"/>
    <path class="cls-14" d="M314.8,165.57c-.1,0-.21-.03-.3-.1-.22-.16-.27-.48-.1-.7,3.34-4.5,7.95-6.52,13.69-5.98.16.01.27.03.33.03.28,0,.5.22.5.5s-.22.5-.5.5c-.08,0-.23-.01-.43-.03-5.37-.5-9.68,1.38-12.8,5.58-.1.13-.25.2-.4.2Z"/>
    <path class="cls-14" d="M293.98,200.29c-2.2,0-4.52-.29-6.87-1.01-.26-.08-.41-.36-.33-.62.08-.26.36-.42.62-.33,9.16,2.81,17.81-1.29,20.66-2.64.53-.25.76-.36.93-.4.27-.07.54.09.61.36.07.27-.09.54-.36.61-.09.03-.42.18-.75.34-2.21,1.05-7.81,3.7-14.5,3.7Z"/>
    <path class="cls-14" d="M286.32,165.57c-.1,0-.2-.03-.29-.09-12.68-8.91-20.94-7.21-24.05-6.57-.81.17-1.22.25-1.54.13-.26-.1-.38-.39-.28-.65.1-.25.37-.37.62-.29.14.02.59-.08,1-.17,3.22-.66,11.8-2.43,24.83,6.73.23.16.28.47.12.7-.1.14-.25.21-.41.21Z"/>
    <path class="cls-14" d="M274.37,135.09h0c-.28,0-.5-.23-.49-.51.02-1.18.25-4.24,1.99-7.26.14-.24.45-.32.68-.18.24.14.32.44.18.68-1.62,2.82-1.84,5.68-1.86,6.78,0,.27-.23.49-.5.49Z"/>
    <path class="cls-14" d="M311.77,142.35s-.02,0-.02,0c-.28-.01-.49-.25-.48-.52.4-8.49-3.23-10.98-4.6-11.92-.34-.24-.53-.37-.62-.59-.1-.26.02-.55.27-.65.23-.1.49,0,.61.2.06.06.17.12.3.22,1.35.93,5.45,3.75,5.03,12.79-.01.27-.23.48-.5.48Z"/>
    <path class="cls-14" d="M307.9,103.14c-.09,0-.19-.03-.28-.1-.22-.16-.27-.48-.11-.7.06-.08.13-.13.21-.17l.09-.05c3.18-1.99,6.18-2.02,8.13-1.69.27.05.46.3.41.58s-.3.46-.58.41c-1.78-.3-4.52-.27-7.44,1.55-.12.08-.27.17-.44.17Z"/>
    <path class="cls-14" d="M233.27,105.74c-.1,0-.2-.03-.29-.09-.23-.16-.28-.47-.12-.7.03-.05,3.45-4.78,9.42-1.85.25.12.35.42.23.67-.12.25-.42.35-.67.23-5.19-2.55-8.04,1.36-8.16,1.53-.1.14-.25.21-.41.21Z"/>
    <path class="cls-14" d="M282.53,302.79s-.04,0-.06,0c-.27-.03-.47-.28-.44-.56,2.82-23.19-8.28-39.76-8.39-39.92-.16-.23-.1-.54.13-.7.23-.15.54-.1.7.13.11.17,11.43,17.03,8.56,40.61-.03.25-.25.44-.5.44Z"/>
    <path class="cls-14" d="M197.11,230.24c-.13,0-.26-.05-.35-.15-3.3-3.29-5.15-3.66-6.11-3.38-1.11.31-1.43,1.6-1.43,1.61-.06.27-.33.44-.6.37-.27-.06-.44-.33-.37-.6.02-.08.45-1.87,2.12-2.35,1.78-.52,4.17.71,7.1,3.63.2.19.2.51,0,.71-.1.1-.23.15-.35.15Z"/>
    <path class="cls-14" d="M232.56,233.52c-.13,0-.26-.05-.35-.15-3.3-3.29-5.15-3.66-6.11-3.38-1.11.31-1.43,1.6-1.43,1.61-.06.27-.33.44-.6.37-.27-.06-.43-.33-.37-.6.02-.08.45-1.87,2.12-2.35,1.78-.51,4.17.71,7.1,3.63.2.19.2.51,0,.71-.1.1-.23.15-.35.15Z"/>
    <path class="cls-14" d="M186.14,319.74c-.18,0-.35-.09-.44-.26-.13-.24-.04-.55.2-.68,20.35-11.1,30.99-40.26,30.99-52.78,0-.28.22-.5.5-.5s.5.22.5.5c0,12.73-10.82,42.37-31.52,53.66-.08.04-.16.06-.24.06Z"/>
    <path class="cls-14" d="M226.86,256.53c-.22,0-.42-.15-.48-.37l-4.96-18.65c-.87-3.26-.92-6.57-.16-9.58.85-3.36,2.53-6.02,4.99-7.91.22-.17.53-.13.7.09.17.22.13.53-.09.7-2.27,1.74-3.83,4.22-4.63,7.36-.72,2.84-.67,5.98.16,9.08l4.96,18.65c.07.27-.09.54-.35.61-.04.01-.09.02-.13.02Z"/>
    <path class="cls-14" d="M186.14,263.94c-.17,0-.34-.09-.44-.25-4.68-8.25-2.97-19.41-2.89-19.88.04-.27.29-.46.57-.41.27.04.46.3.41.57-.02.11-1.73,11.28,2.77,19.22.14.24.05.55-.19.68-.08.04-.16.07-.25.07Z"/>
    <path class="cls-14" d="M237.67,214.62c-.18,0-.35-.09-.44-.26-.13-.24-.04-.55.2-.68.21-.11,20.69-11.14,35.86-3.46.25.12.35.43.22.67-.12.25-.43.34-.67.22-14.7-7.45-34.73,3.33-34.93,3.44-.08.04-.16.06-.24.06Z"/>
    <path class="cls-14" d="M228,207.46s-.04,0-.06,0c-3.87-.49-7.7-.5-11.38-.04-.27.04-.52-.16-.56-.43-.03-.27.16-.52.43-.56,3.77-.48,7.68-.46,11.64.04.27.04.47.29.43.56-.03.25-.25.44-.5.44Z"/>
    <path class="cls-14" d="M297.08,237.71c-.22,0-.42-.15-.48-.37-.07-.27.08-.54.35-.62,10.16-2.79,8.17-19.57,8.14-19.73-.05-.27.13-.53.4-.58.26-.04.53.13.58.4.03.17,2.1,17.87-8.86,20.88-.04.01-.09.02-.13.02Z"/>
    <path class="cls-8" d="M265.62,59.95c-.16,0-.32-.1-.38-.26-.08-.21.02-.45.23-.53l2.23-.86c.21-.08.45.02.53.23.08.21-.02.45-.23.53l-2.23.86s-.1.03-.15.03Z"/>
    <path class="cls-8" d="M265.29,58.48s-.04,0-.06,0c-.22-.04-.37-.24-.34-.47.04-.28.06-.39,2.9-1.28.21-.07.44.05.51.27.07.21-.05.44-.27.51-1.01.32-2.2.72-2.46.86-.07.07-.18.12-.28.12Z"/>
    <path class="cls-2" d="M203.29,150.94c-3.23,4.07-6.83,6.59-8.05,5.62-1.21-.96.42-5.04,3.65-9.11,3.23-4.07,6.83-6.59,8.05-5.62,1.21.96-.42,5.04-3.65,9.11Z"/>
    <path class="cls-14" d="M232.49,168.99c-.26,0-.48-.2-.5-.47-.92-14.86-12.47-22.7-13.51-22.99-.26.02-.46-.19-.48-.46-.02-.28.24-.51.52-.53,0,0,.01,0,.02,0,1.27,0,13.5,8.41,14.46,23.92.02.28-.19.51-.47.53-.01,0-.02,0-.03,0Z"/>
    <path class="cls-14" d="M196.88,163.72c-.06,0-.13,0-.19,0-.28,0-.5-.23-.49-.51,0-.28.21-.54.51-.49.06,0,.11,0,.17,0,9.22,0,14.93-10.33,14.99-10.44.13-.24.43-.33.68-.2.24.13.33.43.2.68-.24.45-6.06,10.96-15.86,10.96Z"/>
    <path class="cls-8" d="M268.06,74.37c-2.09,0-3.25-1.48-3.3-1.55-.14-.18-.1-.43.08-.57.18-.14.43-.1.57.07.04.06,1.1,1.38,2.99,1.22,1.84-.16,2.26-1.38,2.28-1.43.07-.21.3-.33.51-.26.21.07.33.29.26.51-.02.07-.59,1.78-2.98,1.99-.14.01-.27.02-.41.02Z"/>
    <path class="cls-14" d="M257.91,314.6c-.08,0-.17-.02-.24-.06-17.7-9.89-24.03-32.02-24.09-32.25-.07-.27.08-.54.35-.62.27-.08.54.08.62.35.06.22,6.28,21.96,23.62,31.64.24.13.33.44.19.68-.09.16-.26.26-.44.26Z"/>
  </g>
  <g id="table">
    <path class="cls-20" d="M308.86,217.28v119.05c-2.18.41-4.37.79-6.57,1.15v-120.2h6.57Z"/>
    <path class="cls-20" d="M350.77,201.29v124.17c-2.18.75-4.37,1.48-6.58,2.17v-126.34h6.58Z"/>
    <path class="cls-20" d="M65.5,203.32v116.21c-2.26-1.05-4.45-2.14-6.58-3.25v-112.96h6.58Z"/>
    <path class="cls-20" d="M109.66,187.33v147.1c-2.23-.52-4.42-1.06-6.58-1.62v-145.48h6.58Z"/>
    <g class="cls-18">
      <polygon class="cls-10" points="324.06 220.42 361.18 194.84 361.03 201.27 324.06 228.1 324.06 220.42"/>
      <polygon class="cls-21" points="39.18 202.53 102.44 178.95 361.18 194.84 324.06 220.42 39.18 202.53"/>
      <polygon class="cls-10" points="324.06 220.42 324.06 228.1 39.31 209.68 39.18 202.53 324.06 220.42"/>
    </g>
    <g>
      <path class="cls-13" d="M109.2,194.3h-1.07v-101.49c0-24.04,6.91-40.04,18.48-42.78,9.57-2.28,19.97,5.18,27.16,19.45l-.96.48c-6.95-13.8-16.89-21.04-25.95-18.89-11.05,2.63-17.65,18.23-17.65,41.74v101.49Z"/>
      <path class="cls-15" d="M187.71,79.52l-41.9,26.67-19.11-26.05s-.02-.03-.02-.05c-1.79-2.99,6.79-11.85,19.25-19.91,12.51-8.08,24.19-12.26,26.09-9.32.06.08.09.17.13.26h.02s15.55,28.38,15.55,28.38Z"/>
      <path class="cls-14" d="M187.54,79.14c-1.89-2.93-12.79.73-24.32,8.18s-19.36,15.87-17.46,18.81c1.89,2.93,12.79-.73,24.32-8.18s19.36-15.87,17.46-18.81Z"/>
      <path class="cls-13" d="M134.13,194.3c0,1.36-11.39,2.45-25.45,2.45s-25.47-1.09-25.47-2.45c0-5.33,11.39-9.66,25.45-9.66s25.47,4.33,25.47,9.66Z"/>
    </g>
  </g>
  <g id="laptop">
    <polygon class="cls-4" points="281.21 189.49 210.56 183.97 157.91 199.71 237.85 204.42 281.21 189.49"/>
    <g class="cls-25">
      <g>
        <path class="cls-14" d="M163.25,207.02c-.1,0-.2-.07-.24-.17-.04-.13.03-.27.16-.32l62.36-20.86c.13-.04.27.03.32.16.04.13-.03.27-.16.32l-62.36,20.86s-.05.01-.08.01Z"/>
        <path class="cls-14" d="M176.25,207.02c-.1,0-.2-.07-.24-.17-.04-.13.03-.27.16-.32l62.36-20.86c.13-.04.27.03.32.16.04.13-.03.27-.16.32l-62.36,20.86s-.05.01-.08.01Z"/>
        <path class="cls-14" d="M189.25,207.02c-.1,0-.2-.07-.24-.17-.04-.13.03-.27.16-.32l62.36-20.86c.13-.04.27.03.32.16.04.13-.03.27-.16.32l-62.36,20.86s-.05.01-.08.01Z"/>
        <path class="cls-14" d="M202.25,207.02c-.1,0-.2-.07-.24-.17-.04-.13.03-.27.16-.32l62.36-20.86c.13-.04.27.03.32.16.04.13-.03.27-.16.32l-62.36,20.86s-.05.01-.08.01Z"/>
        <path class="cls-14" d="M215.25,207.02c-.1,0-.2-.07-.24-.17-.04-.13.03-.27.16-.32l62.36-20.86c.13-.04.27.03.32.16.04.13-.03.27-.16.32l-62.36,20.86s-.05.01-.08.01Z"/>
        <path class="cls-14" d="M228.44,207.35c-.1,0-.2-.07-.24-.17-.04-.13.03-.27.16-.32l62.36-20.86c.13-.04.27.03.32.16.04.13-.03.27-.16.32l-62.36,20.86s-.05.01-.08.01Z"/>
      </g>
      <path class="cls-14" d="M276.45,192.74s-.01,0-.02,0l-68.41-5c-.14,0-.24-.13-.23-.27.01-.14.14-.25.27-.23l68.42,5c.14,0,.24.13.23.27,0,.13-.12.23-.25.23Z"/>
      <path class="cls-14" d="M267.69,196.67s-.01,0-.02,0l-68.42-5c-.14,0-.24-.13-.23-.27.01-.14.14-.26.27-.23l68.42,5c.14,0,.24.13.23.27,0,.13-.12.23-.25.23Z"/>
      <path class="cls-14" d="M255.35,200.57s-.01,0-.02,0l-68.42-5c-.14,0-.24-.13-.23-.27.01-.14.14-.25.27-.23l68.42,5c.14,0,.24.13.23.27,0,.13-.12.23-.25.23Z"/>
    </g>
    <path class="cls-14" d="M282.05,190.52v1.66l-43.69,14.8c-.71.24-1.45.34-2.2.31l-7.5-.39,51.93-17.43c.72-.24,1.46.29,1.46,1.05Z"/>
    <g>
      <path class="cls-22" d="M274.76,188.91c-.02.06-12.03-.05-14.83-.54-.88-.16-1.52-3.86-1.52-3.86h0s-1.53-3.11-1.53-3.11l-1.08-2.19-2.23-4.51.29-.02,2.56-.17,2.53-.18,9.41-.63c.48.25.96.55,1.43.88,1.12.79,2.14,1.79,3.03,2.98h0c.12.18.24.35.36.53,2.39,3.56,2.88,7.73,1.58,10.82Z"/>
      <path class="cls-22" d="M256.68,189.75l-11.88-2.12-4.95-11.8,16.55-1.37,6.4,9.55c-.06,3.51-2.87,6.23-6.12,5.74Z"/>
      <path class="cls-22" d="M252.37,188.64l-9.61-.18.94-.27-9.9,5.39c-.8.44-1.8.14-2.24-.66-.42-.77-.16-1.73.57-2.19l9.55-6c.24-.15.5-.23.76-.26l.18-.02,9.58-.84c1.38-.12,2.6.9,2.73,2.29.12,1.38-.9,2.6-2.29,2.73-.09,0-.18.01-.27,0Z"/>
      <path class="cls-22" d="M251.96,184.7l-12.19.73.87-.3-11.37,6.76c-2.43,1.16-3.92-.79-3.92-.79l13.13-9.34c.23-.15.48-.25.73-.28l.14-.02,12.08-1.74c1.37-.2,2.65.75,2.85,2.13s-.75,2.65-2.13,2.85c-.07,0-.14.02-.21.02Z"/>
      <path class="cls-22" d="M250.72,181.58l-13.2.97.92-.35-12.2,8.29c-1.11.9-3.68.85-4.71-.68,0,0,.49-.52,1.2-1.05l13.4-9.84c.24-.18.52-.29.79-.33l.13-.02,13.08-1.99c1.37-.21,2.65.74,2.86,2.11.21,1.37-.74,2.65-2.11,2.86-.06,0-.13.02-.19.02Z"/>
      <path class="cls-22" d="M248.73,180.02l-12.14.14,1.18-.47-11.79,9.49c-.71.57-3.24.75-3.81.03-.56-.69.58-1.66,1.24-2.24l11.78-10.34c.3-.27.67-.42,1.05-.46h.13s12.41-1.09,12.41-1.09c1.38-.13,2.29.79,2.42,2.17.13,1.38-.88,2.61-2.26,2.74-.07,0-.14.01-.21.01Z"/>
      <path class="cls-8" d="M225.48,191.48c-.21,0-.39-.16-.41-.37-.06-.65,12.13-10.81,12.25-10.9,1.12-.8,8.42-1.03,9.87-1.07.24.02.41.17.42.4,0,.22-.17.41-.4.42-3.51.09-8.75.44-9.41.92-1.22.87-11.33,9.67-11.96,10.4-.06.12-.18.2-.32.21-.01,0-.02,0-.04,0Z"/>
      <path class="cls-8" d="M231.69,191.3c-.13,0-.26-.06-.34-.18-.13-.19-.08-.44.11-.57.33-.22,8.1-5.5,9.52-6.38,1.49-.92,7.15-1.09,7.79-1.1h.01c.22,0,.4.18.41.4,0,.23-.17.41-.4.42-1.68.04-6.28.3-7.38.98-1.41.87-9.41,6.3-9.49,6.36-.07.05-.15.07-.23.07Z"/>
      <path class="cls-8" d="M221.65,190.26s-.09,0-.12-.02c-.14-.05-.24-.18-.26-.33,0-.08-.02-.13.17-.33l-.03-.03s.08-.06.13-.07c.54-.55,2.1-1.92,6.57-5.84,4.56-4,7.15-6.22,7.69-6.59,1.29-.89,7.43-1.04,8.13-1.05.22,0,.41.17.41.4,0,.22-.17.41-.4.42-2.53.05-6.86.34-7.68.91-1.19.82-13.44,11.67-14.27,12.41,0,0-.02.02-.03.03-.08.07-.21.12-.32.12Z"/>
    </g>
    <g class="cls-18">
      <path class="cls-1" d="M222.89,158.01l13.83,45.75c.55,1.82-.87,3.64-2.77,3.54l-73.92-4.95c-1.59-.11-2.97-1.15-3.51-2.65l-14.89-44.83c-.83-2.31.92-4.74,3.38-4.68l71.65,3.08c2.88.07,5.39,1.98,6.22,4.74Z"/>
    </g>
    <path class="cls-6" d="M188.6,174.87c2.77,1.75,4,4.77,2.76,6.73s-4.5,2.14-7.27.38-4-4.77-2.76-6.73c1.24-1.96,4.5-2.14,7.27-.38Z"/>
  </g>
</svg>